<svg width="129" height="42" viewBox="0 0 129 42" fill="none" xmlns="http://www.w3.org/2000/svg">
<rect x="0.549744" y="0.549744" width="127.697" height="40.9005" rx="10.4451" stroke="#37474F" stroke-width="1.09949"/>
<path d="M25.9313 21.5009C25.9431 20.5845 26.1852 19.6859 26.6353 18.8888C27.0853 18.0917 27.7286 17.422 28.5053 16.942C28.0119 16.2336 27.3609 15.6507 26.6042 15.2394C25.8475 14.8282 25.0058 14.6 24.1459 14.5729C22.3118 14.3794 20.5337 15.6762 19.599 15.6762C18.6463 15.6762 17.2073 14.5921 15.6577 14.6242C14.6553 14.6567 13.6785 14.9497 12.8223 15.4746C11.9661 15.9995 11.2598 16.7384 10.7722 17.6193C8.65975 21.2958 10.2354 26.6991 12.2589 29.6709C13.2713 31.1261 14.4545 32.7516 16.0027 32.6939C17.5177 32.6308 18.0836 31.7228 19.9123 31.7228C21.7241 31.7228 22.2549 32.6939 23.8346 32.6573C25.4602 32.6308 26.4845 31.1956 27.4614 29.7266C28.1888 28.6897 28.7485 27.5437 29.1199 26.3311C28.1754 25.9295 27.3694 25.2574 26.8024 24.3984C26.2354 23.5395 25.9324 22.5318 25.9313 21.5009V21.5009Z" fill="#E85451"/>
<path d="M22.9476 12.6185C23.834 11.5489 24.2707 10.174 24.1649 8.78589C22.8107 8.92887 21.5598 9.57949 20.6615 10.6081C20.2222 11.1106 19.8858 11.6952 19.6715 12.3285C19.4571 12.9618 19.369 13.6313 19.4122 14.2989C20.0896 14.3059 20.7597 14.1583 21.3721 13.8672C21.9844 13.5762 22.5231 13.1492 22.9476 12.6185Z" fill="#E85451"/>
<path d="M45.0819 29.0102H39.9119L38.6703 32.6955H36.4805L41.3774 19.0608H43.6526L48.5496 32.6955H46.3224L45.0819 29.0102ZM40.4473 27.3096H44.5454L42.5252 21.3286H42.4687L40.4473 27.3096Z" fill="#37474F"/>
<path d="M59.1256 27.7255C59.1256 30.8146 57.4808 32.7993 54.9987 32.7993C54.37 32.8324 53.7447 32.6868 53.1944 32.3792C52.6441 32.0716 52.1912 31.6145 51.8873 31.0601H51.8404V35.9839H49.8105V22.7545H51.7753V24.4079H51.8127C52.1305 23.8562 52.5911 23.4015 53.1456 23.092C53.7 22.7825 54.3276 22.63 54.9614 22.6505C57.4712 22.6505 59.1256 24.6449 59.1256 27.7255ZM57.0392 27.7255C57.0392 25.7129 56.0046 24.3897 54.4259 24.3897C52.875 24.3897 51.8319 25.7407 51.8319 27.7255C51.8319 29.7284 52.875 31.0698 54.4259 31.0698C56.0046 31.0698 57.0392 29.7563 57.0392 27.7255Z" fill="#37474F"/>
<path d="M70.0099 27.7255C70.0099 30.8146 68.3651 32.7993 65.883 32.7993C65.2543 32.8324 64.629 32.6868 64.0787 32.3792C63.5284 32.0716 63.0754 31.6145 62.7716 31.0601H62.7246V35.9839H60.6948V22.7545H62.6596V24.4079H62.6969C63.0147 23.8562 63.4753 23.4015 64.0298 23.092C64.5843 22.7825 65.2118 22.63 65.8457 22.6505C68.3555 22.6505 70.0099 24.6449 70.0099 27.7255ZM67.9235 27.7255C67.9235 25.7129 66.8889 24.3897 65.3102 24.3897C63.7593 24.3897 62.7161 25.7407 62.7161 27.7255C62.7161 29.7284 63.7593 31.0698 65.3102 31.0698C66.8889 31.0698 67.9235 29.7563 67.9235 27.7255H67.9235Z" fill="#37474F"/>
<path d="M77.2033 28.8966C77.3537 30.2487 78.6603 31.1365 80.4459 31.1365C82.1568 31.1365 83.3877 30.2487 83.3877 29.0295C83.3877 27.9712 82.6453 27.3375 80.8874 26.9032L79.1296 26.4776C76.639 25.8728 75.4828 24.7019 75.4828 22.8019C75.4828 20.4494 77.5222 18.8335 80.4181 18.8335C83.2842 18.8335 85.249 20.4494 85.3151 22.8019H83.266C83.1434 21.4412 82.0245 20.6199 80.3893 20.6199C78.7541 20.6199 77.6352 21.4509 77.6352 22.6604C77.6352 23.6243 78.3499 24.1915 80.0981 24.6257L81.5925 24.9946C84.3753 25.6562 85.5316 26.7799 85.5316 28.7743C85.5316 31.3251 83.5103 32.9228 80.2954 32.9228C77.2875 32.9228 75.2566 31.3627 75.1254 28.8965L77.2033 28.8966Z" fill="#37474F"/>
<path d="M89.9123 20.4021V22.7546H91.7928V24.3705H89.9123V29.8507C89.9123 30.7021 90.2888 31.0988 91.1155 31.0988C91.3387 31.0949 91.5616 31.0792 91.7832 31.0516V32.6579C91.4115 32.7277 91.0338 32.7593 90.6558 32.7522C88.6537 32.7522 87.8729 31.9963 87.8729 30.0684V24.3705H86.4351V22.7546H87.8729V20.4021H89.9123Z" fill="#37474F"/>
<path d="M92.8813 27.7255C92.8813 24.5978 94.7138 22.6323 97.5714 22.6323C100.439 22.6323 102.262 24.5977 102.262 27.7255C102.262 30.8618 100.448 32.8187 97.5714 32.8187C94.6957 32.8187 92.8813 30.8618 92.8813 27.7255ZM100.194 27.7255C100.194 25.5799 99.2161 24.3136 97.5714 24.3136C95.9266 24.3136 94.9496 25.5896 94.9496 27.7255C94.9496 29.8796 95.9266 31.1363 97.5714 31.1363C99.2161 31.1363 100.194 29.8796 100.194 27.7255H100.194Z" fill="#37474F"/>
<path d="M103.936 22.7544H105.872V24.4464H105.919C106.05 23.918 106.358 23.451 106.791 23.1239C107.224 22.7968 107.756 22.6296 108.298 22.6504C108.532 22.6496 108.765 22.6751 108.993 22.7265V24.6351C108.698 24.5444 108.39 24.5028 108.081 24.5118C107.786 24.4998 107.492 24.5521 107.219 24.665C106.946 24.778 106.701 24.949 106.5 25.1663C106.299 25.3836 106.147 25.642 106.055 25.9238C105.963 26.2056 105.932 26.5042 105.966 26.7989V32.6952H103.936L103.936 22.7544Z" fill="#37474F"/>
<path d="M118.352 29.7756C118.079 31.5802 116.331 32.8187 114.094 32.8187C111.217 32.8187 109.432 30.8811 109.432 27.7727C109.432 24.6546 111.227 22.6323 114.009 22.6323C116.745 22.6323 118.465 24.5216 118.465 27.5357V28.2348H111.481V28.3581C111.448 28.724 111.494 29.0925 111.614 29.4393C111.735 29.7861 111.927 30.1032 112.179 30.3695C112.43 30.6358 112.735 30.8453 113.074 30.9839C113.412 31.1226 113.776 31.1874 114.141 31.1738C114.621 31.219 115.102 31.1073 115.513 30.8554C115.925 30.6035 116.244 30.2248 116.425 29.7756L118.352 29.7756ZM111.49 26.8087H116.434C116.452 26.4798 116.403 26.1506 116.288 25.8418C116.174 25.5331 115.998 25.2514 115.77 25.0145C115.542 24.7776 115.268 24.5906 114.965 24.4651C114.662 24.3397 114.336 24.2787 114.009 24.2857C113.678 24.2837 113.35 24.3476 113.045 24.4736C112.739 24.5996 112.461 24.7852 112.226 25.0198C111.992 25.2543 111.807 25.5332 111.68 25.8402C111.554 26.1473 111.489 26.4764 111.49 26.8087V26.8087Z" fill="#37474F"/>
<path d="M40.1929 8.79772C40.6185 8.76702 41.0455 8.83165 41.4432 8.98694C41.8409 9.14223 42.1994 9.38431 42.4927 9.69573C42.7861 10.0071 43.0071 10.3801 43.1397 10.7878C43.2723 11.1954 43.3132 11.6276 43.2596 12.0531C43.2596 14.1461 42.1342 15.3492 40.1929 15.3492H37.8389V8.79772H40.1929ZM38.8511 14.4227H40.0799C40.384 14.4409 40.6883 14.3908 40.9707 14.276C41.2531 14.1611 41.5064 13.9844 41.7123 13.7587C41.9182 13.533 42.0714 13.264 42.1608 12.9712C42.2502 12.6785 42.2736 12.3694 42.2292 12.0664C42.2704 11.7646 42.2446 11.4575 42.1538 11.1669C42.0631 10.8763 41.9095 10.6095 41.704 10.3855C41.4986 10.1616 41.2465 9.98617 40.9657 9.87172C40.6849 9.75727 40.3824 9.70667 40.0799 9.72355H38.8511V14.4227Z" fill="#37474F"/>
<path d="M44.4026 12.8751C44.3717 12.5502 44.4086 12.2224 44.5111 11.9127C44.6136 11.603 44.7794 11.3182 44.9978 11.0767C45.2161 10.8351 45.4823 10.6422 45.7793 10.5101C46.0762 10.378 46.3973 10.3098 46.722 10.3098C47.0467 10.3098 47.3678 10.378 47.6647 10.5101C47.9616 10.6422 48.2278 10.8351 48.4462 11.0767C48.6646 11.3182 48.8304 11.603 48.9329 11.9127C49.0354 12.2224 49.0723 12.5502 49.0414 12.8751C49.0729 13.2004 49.0364 13.5286 48.9342 13.8388C48.8319 14.1491 48.6663 14.4343 48.4478 14.6763C48.2294 14.9183 47.963 15.1117 47.6658 15.2441C47.3686 15.3764 47.0471 15.4448 46.722 15.4448C46.3969 15.4448 46.0754 15.3764 45.7782 15.2441C45.481 15.1117 45.2146 14.9183 44.9961 14.6763C44.7777 14.4343 44.6121 14.1491 44.5098 13.8388C44.4076 13.5286 44.3711 13.2004 44.4026 12.8751ZM48.043 12.8751C48.043 11.8034 47.5641 11.1767 46.7236 11.1767C45.8799 11.1767 45.4053 11.8034 45.4053 12.8751C45.4053 13.9554 45.8799 14.5773 46.7236 14.5773C47.5641 14.5773 48.043 13.9511 48.043 12.8751H48.043Z" fill="#37474F"/>
<path d="M55.2082 15.3492H54.2013L53.1847 11.7078H53.1079L52.0957 15.3492H51.0984L49.7427 10.405H50.7272L51.6082 14.1777H51.6808L52.692 10.405H53.6231L54.6343 14.1777H54.7111L55.5879 10.405H56.5585L55.2082 15.3492Z" fill="#37474F"/>
<path d="M57.6987 10.405H58.6331V11.1904H58.7056C58.8287 10.9083 59.0362 10.6718 59.2993 10.5139C59.5624 10.356 59.8679 10.2846 60.1734 10.3096C60.4127 10.2915 60.653 10.3277 60.8764 10.4157C61.0999 10.5036 61.3008 10.641 61.4643 10.8176C61.6278 10.9942 61.7497 11.2055 61.8209 11.4359C61.8921 11.6663 61.9108 11.9098 61.8757 12.1485V15.3491H60.9051V12.3935C60.9051 11.5989 60.5616 11.2038 59.8438 11.2038C59.6813 11.1962 59.5191 11.224 59.3683 11.2853C59.2175 11.3466 59.0817 11.44 58.9701 11.559C58.8586 11.678 58.774 11.8198 58.722 11.9748C58.6701 12.1297 58.6522 12.2941 58.6694 12.4567V15.3491H57.6987L57.6987 10.405Z" fill="#37474F"/>
<path d="M63.4224 8.47485H64.393V15.349H63.4224V8.47485Z" fill="#37474F"/>
<path d="M65.7424 12.875C65.7115 12.55 65.7485 12.2222 65.851 11.9125C65.9535 11.6028 66.1193 11.318 66.3377 11.0764C66.5561 10.8349 66.8223 10.6419 67.1193 10.5099C67.4162 10.3778 67.7374 10.3096 68.0621 10.3096C68.3868 10.3096 68.7079 10.3778 69.0049 10.5099C69.3018 10.6419 69.568 10.8349 69.7864 11.0764C70.0048 11.318 70.1706 11.6028 70.2731 11.9125C70.3757 12.2222 70.4127 12.55 70.3818 12.875C70.4132 13.2002 70.3767 13.5285 70.2744 13.8387C70.1721 14.1489 70.0065 14.4342 69.788 14.6762C69.5695 14.9182 69.3031 15.1116 69.0059 15.2439C68.7087 15.3763 68.3872 15.4446 68.0621 15.4446C67.737 15.4446 67.4155 15.3763 67.1183 15.2439C66.821 15.1116 66.5546 14.9182 66.3362 14.6762C66.1177 14.4342 65.952 14.1489 65.8498 13.8387C65.7475 13.5285 65.7109 13.2002 65.7424 12.875ZM69.3828 12.875C69.3828 11.8033 68.9039 11.1765 68.0634 11.1765C67.2197 11.1765 66.7451 11.8033 66.7451 12.875C66.7451 13.9553 67.2197 14.5772 68.0634 14.5772C68.9039 14.5772 69.3828 13.951 69.3828 12.875H69.3828Z" fill="#37474F"/>
<path d="M71.4033 13.9509C71.4033 13.0609 72.0625 12.5479 73.2326 12.475L74.5649 12.3978V11.971C74.5649 11.4488 74.2214 11.154 73.5579 11.154C73.0161 11.154 72.6406 11.3539 72.5329 11.7035H71.5932C71.6924 10.8543 72.487 10.3096 73.6027 10.3096C74.8358 10.3096 75.5312 10.9266 75.5312 11.971V15.3491H74.5969V14.6543H74.5201C74.3642 14.9036 74.1453 15.1067 73.8857 15.2431C73.6262 15.3795 73.3353 15.4442 73.0428 15.4306C72.8363 15.4522 72.6276 15.43 72.4302 15.3656C72.2327 15.3011 72.0509 15.1958 71.8965 15.0564C71.742 14.917 71.6183 14.7466 71.5334 14.5562C71.4484 14.3658 71.4041 14.1596 71.4033 13.9509ZM74.5649 13.5284V13.1151L73.3638 13.1923C72.6865 13.2379 72.3793 13.4695 72.3793 13.9053C72.3793 14.3503 72.7633 14.6093 73.2913 14.6093C73.446 14.625 73.6023 14.6093 73.7509 14.5631C73.8994 14.5169 74.0372 14.4411 74.156 14.3403C74.2748 14.2394 74.3723 14.1156 74.4425 13.9761C74.5127 13.8367 74.5543 13.6844 74.5649 13.5284Z" fill="#37474F"/>
<path d="M76.8074 12.8748C76.8074 11.3126 77.6063 10.3229 78.8489 10.3229C79.1563 10.3087 79.4614 10.3827 79.7284 10.5363C79.9955 10.6899 80.2136 10.9167 80.3572 11.1903H80.4297V8.47485H81.4003V15.349H80.4702V14.5679H80.3934C80.2388 14.8396 80.0131 15.0637 79.7409 15.2157C79.4686 15.3678 79.1602 15.442 78.8489 15.4305C77.5978 15.4306 76.8074 14.4409 76.8074 12.8748ZM77.8101 12.8748C77.8101 13.9235 78.3018 14.5545 79.1242 14.5545C79.9423 14.5545 80.4479 13.9144 80.4479 12.8791C80.4479 11.8487 79.937 11.1995 79.1242 11.1995C78.3071 11.1995 77.81 11.8348 77.81 12.8748H77.8101Z" fill="#37474F"/>
<path d="M85.4162 12.8751C85.3853 12.5502 85.4223 12.2224 85.5248 11.9127C85.6273 11.603 85.793 11.3182 86.0114 11.0767C86.2298 10.8351 86.496 10.6422 86.7929 10.5101C87.0899 10.378 87.411 10.3098 87.7357 10.3098C88.0604 10.3098 88.3815 10.378 88.6784 10.5101C88.9753 10.6422 89.2415 10.8351 89.4599 11.0767C89.6783 11.3182 89.844 11.603 89.9465 11.9127C90.049 12.2224 90.086 12.5502 90.0551 12.8751C90.0866 13.2004 90.0501 13.5286 89.9478 13.8388C89.8456 14.1491 89.6799 14.4343 89.4615 14.6763C89.2431 14.9183 88.9767 15.1117 88.6794 15.2441C88.3822 15.3764 88.0607 15.4448 87.7357 15.4448C87.4106 15.4448 87.0891 15.3764 86.7919 15.2441C86.4947 15.1117 86.2283 14.9183 86.0098 14.6763C85.7914 14.4343 85.6257 14.1491 85.5235 13.8388C85.4213 13.5286 85.3847 13.2004 85.4162 12.8751ZM89.0567 12.8751C89.0567 11.8034 88.5778 11.1767 87.7373 11.1767C86.8935 11.1767 86.4189 11.8034 86.4189 12.8751C86.4189 13.9554 86.8936 14.5773 87.7373 14.5773C88.5778 14.5773 89.0567 13.9511 89.0567 12.8751Z" fill="#37474F"/>
<path d="M91.3574 10.405H92.2918V11.1904H92.3643C92.4874 10.9083 92.6949 10.6718 92.958 10.5139C93.2211 10.356 93.5266 10.2846 93.832 10.3096C94.0714 10.2915 94.3116 10.3277 94.5351 10.4157C94.7586 10.5036 94.9595 10.641 95.123 10.8176C95.2865 10.9942 95.4084 11.2055 95.4796 11.4359C95.5508 11.6663 95.5695 11.9098 95.5344 12.1485V15.3491H94.5638V12.3935C94.5638 11.5989 94.2203 11.2038 93.5025 11.2038C93.34 11.1962 93.1778 11.224 93.027 11.2853C92.8762 11.3466 92.7404 11.44 92.6288 11.559C92.5173 11.678 92.4326 11.8198 92.3807 11.9748C92.3288 12.1297 92.3109 12.2941 92.3281 12.4567V15.3491H91.3574V10.405Z" fill="#37474F"/>
<path d="M101.019 9.17383V10.4273H102.084V11.2492H101.019V13.7915C101.019 14.3094 101.231 14.5361 101.714 14.5361C101.838 14.5357 101.961 14.5282 102.084 14.5136V15.3264C101.91 15.3577 101.733 15.3744 101.556 15.3762C100.477 15.3762 100.047 14.9945 100.047 14.0413V11.2491H99.2661V10.4272H100.047V9.17383H101.019Z" fill="#37474F"/>
<path d="M103.41 8.47485H104.372V11.1994H104.449C104.578 10.9147 104.792 10.6769 105.06 10.5184C105.328 10.3599 105.639 10.2885 105.949 10.3138C106.187 10.3007 106.425 10.3407 106.646 10.4308C106.867 10.5209 107.065 10.6588 107.227 10.8349C107.389 11.0109 107.51 11.2207 107.582 11.4492C107.654 11.6778 107.675 11.9194 107.643 12.157V15.349H106.671V12.3977C106.671 11.608 106.305 11.208 105.619 11.208C105.453 11.1943 105.285 11.2173 105.128 11.2756C104.971 11.3338 104.828 11.4259 104.71 11.5452C104.592 11.6646 104.502 11.8085 104.445 11.9668C104.388 12.125 104.366 12.2939 104.381 12.4615V15.349H103.41L103.41 8.47485Z" fill="#37474F"/>
<path d="M113.303 14.0143C113.171 14.4661 112.885 14.857 112.495 15.1185C112.106 15.38 111.637 15.4954 111.171 15.4446C110.847 15.4532 110.525 15.3908 110.228 15.2618C109.93 15.1328 109.664 14.9402 109.448 14.6973C109.232 14.4545 109.071 14.1674 108.976 13.8557C108.881 13.5441 108.855 13.2155 108.899 12.8927C108.856 12.5689 108.883 12.2396 108.977 11.927C109.072 11.6145 109.232 11.326 109.447 11.081C109.662 10.8361 109.927 10.6405 110.224 10.5074C110.52 10.3743 110.842 10.3069 111.167 10.3097C112.536 10.3097 113.361 11.2495 113.361 12.8021V13.1425H109.888V13.1972C109.873 13.3787 109.896 13.5613 109.955 13.7334C110.014 13.9055 110.108 14.0633 110.231 14.1967C110.355 14.33 110.504 14.436 110.671 14.5078C110.837 14.5796 111.017 14.6156 111.198 14.6136C111.43 14.6416 111.665 14.5996 111.874 14.4929C112.082 14.3862 112.254 14.2195 112.368 14.0142L113.303 14.0143ZM109.888 12.4209H112.372C112.385 12.255 112.362 12.0883 112.306 11.9316C112.251 11.7749 112.163 11.6316 112.049 11.511C111.935 11.3904 111.797 11.2951 111.644 11.2312C111.492 11.1673 111.327 11.1363 111.162 11.1401C110.994 11.138 110.827 11.1697 110.672 11.2333C110.516 11.2969 110.375 11.3912 110.256 11.5106C110.138 11.6299 110.044 11.772 109.981 11.9283C109.917 12.0847 109.886 12.2522 109.888 12.4209H109.888Z" fill="#37474F"/>
</svg>
