<svg width="7" height="12" viewBox="0 0 7 12" fill="none" xmlns="http://www.w3.org/2000/svg">
<path d="M5.68328 4.40998L2.24078 0.967484C2.10025 0.827796 1.91016 0.74939 1.71202 0.74939C1.51389 0.74939 1.3238 0.827796 1.18327 0.967484C1.11298 1.03721 1.05718 1.12016 1.01911 1.21155C0.98103 1.30295 0.961426 1.40098 0.961426 1.49998C0.961426 1.59899 0.98103 1.69702 1.01911 1.78842C1.05718 1.87981 1.11298 1.96276 1.18327 2.03248L4.63328 5.46748C4.70357 5.53721 4.75937 5.62016 4.79744 5.71155C4.83552 5.80295 4.85512 5.90098 4.85512 5.99998C4.85512 6.09899 4.83552 6.19702 4.79744 6.28842C4.75937 6.37981 4.70357 6.46276 4.63328 6.53249L1.18327 9.96749C1.04205 10.1077 0.962311 10.2983 0.961607 10.4973C0.960904 10.6964 1.03929 10.8875 1.17953 11.0287C1.31976 11.17 1.51035 11.2497 1.70937 11.2504C1.9084 11.2511 2.09955 11.1727 2.24078 11.0325L5.68328 7.58998C6.10463 7.16811 6.3413 6.59624 6.3413 5.99998C6.3413 5.40373 6.10463 4.83186 5.68328 4.40998Z" fill="#E85451"/>
</svg>
