<svg width="136" height="89" viewBox="0 0 136 89" fill="none" xmlns="http://www.w3.org/2000/svg">
<g clip-path="url(#clip0_440_178)">
<path d="M133.898 36.1998C132.957 34.1862 131.656 32.3164 130.86 30.2308C130.064 28.361 129.703 26.2755 129.63 24.2618C129.558 22.1763 130.137 20.1627 130.354 18.149C130.571 16.2792 130.571 14.3375 129.775 12.6835C128.979 11.1013 127.677 10.0226 126.158 9.15963C124.712 8.36856 123.048 7.79324 121.457 7.36174C119.287 6.7145 117.045 6.13918 115.164 4.91662C114.296 4.3413 113.717 3.47831 112.994 2.90299C112.922 2.83108 112.922 2.83108 112.85 2.75916C112.343 2.32767 111.475 2.11192 110.752 1.89618C110.68 1.89618 110.607 1.82426 110.535 1.82426C110.39 1.75235 110.318 1.75235 110.173 1.68043C110.101 1.68043 110.029 1.68043 110.029 1.60852C109.956 1.60852 109.812 1.5366 109.739 1.5366C109.378 1.46468 109.016 1.39277 108.654 1.32085C108.51 1.32085 108.365 1.24894 108.22 1.24894C105.327 0.889362 102.217 1.32085 100.264 3.47831C100.192 3.62214 100.047 3.69406 99.9746 3.83789C98.311 5.99535 97.877 9.23154 98.3833 11.8205C98.8896 14.3375 100.77 18.0052 98.6726 20.3065C96.7197 22.464 93.2478 21.8167 90.7886 23.1831C90.4269 23.3989 90.0653 23.6865 89.776 23.9023C89.7036 23.9742 89.6313 24.0461 89.559 24.0461C88.9803 24.6214 88.474 25.3406 88.1123 26.1316C88.04 26.2755 87.9677 26.4193 87.9677 26.4912C87.8954 26.6351 87.823 26.7789 87.823 26.9946C87.7507 27.1385 87.7507 27.2823 87.6784 27.498C87.606 27.6419 87.606 27.8576 87.5337 28.0014C87.5337 28.1453 87.4614 28.361 87.4614 28.5049C87.4614 28.6487 87.389 28.8644 87.389 29.0083C87.389 29.0802 87.389 29.1521 87.389 29.2959C87.389 29.4398 87.389 29.6555 87.389 29.7993C87.389 29.8712 87.389 29.9432 87.389 30.087C87.389 31.741 87.5337 33.3951 87.8954 35.0492C87.9677 35.2649 87.9677 35.4087 88.04 35.6245C88.1123 35.9841 88.1847 36.4155 88.3293 36.7751C88.4017 37.0628 88.474 37.2785 88.5463 37.4943C88.6187 37.8539 88.7633 38.1415 88.8357 38.5011C89.342 39.8675 89.9206 41.2339 90.5716 42.5283C90.7163 42.816 90.8609 43.1037 91.0056 43.3913C91.5119 44.2543 92.0182 45.1173 92.5969 45.9084C92.9585 46.4118 93.2478 46.8433 93.6095 47.2748C93.7541 47.4186 93.8265 47.5624 93.9711 47.7063C94.1158 47.922 94.3328 48.1377 94.4775 48.2816C94.6221 48.4254 94.7668 48.5692 94.8391 48.7131C94.9115 48.785 94.9838 48.8569 95.0561 48.9288L95.1284 49.0007C97.66 51.6616 100.77 53.6752 104.17 55.1135C108.003 56.7676 112.199 57.5587 116.321 57.7025C116.9 57.7025 117.551 57.7025 118.13 57.7025C118.708 57.7025 119.287 57.6306 119.866 57.6306C120.083 57.6306 120.3 57.6306 120.444 57.5587C120.661 57.5587 120.806 57.5587 121.023 57.4867C123.554 57.271 125.941 56.9833 128.184 55.6169C131.222 53.6752 133.608 50.6548 134.693 47.2028C135.851 43.7509 135.561 39.6517 133.898 36.1998Z" fill="#A8A8A8"/>
<path d="M120.155 9.73495C122.759 9.73495 124.784 9.44729 126.158 9.08771C124.712 8.29664 123.048 7.72132 121.457 7.28983C119.287 6.64259 117.045 6.06727 115.164 4.84471C114.296 4.26938 113.717 3.4064 112.994 2.83108C112.922 2.83108 112.922 2.75916 112.849 2.75916C112.126 2.32767 111.403 1.96809 110.607 1.75235C110.535 1.75235 110.463 1.68043 110.39 1.68043C110.246 1.60852 110.173 1.60852 110.029 1.5366C109.956 1.5366 109.884 1.5366 109.884 1.46469C109.812 1.46469 109.667 1.39277 109.595 1.39277C109.233 1.32085 108.871 1.24894 108.51 1.17702C108.365 1.17702 108.22 1.10511 108.076 1.10511C105.182 0.745532 102 1.24894 100.119 3.33448C100.047 3.47832 99.9022 3.55023 99.8299 3.69406C98.1663 5.85152 97.7323 9.08771 98.2386 11.6767C98.7449 14.1937 100.626 17.8614 98.5279 20.1627C96.575 22.3201 93.1031 21.6729 90.6439 23.0393C90.2822 23.255 89.9206 23.5427 89.6312 23.7584C89.5589 23.8304 89.4866 23.9023 89.4142 23.9023C88.8356 24.4776 88.3293 25.1968 87.9676 25.9878C87.8953 26.1316 87.823 26.2755 87.823 26.3474C87.7506 26.4912 87.6783 26.6351 87.6783 26.8508C87.606 26.9946 87.606 27.1385 87.5336 27.3542C87.4613 27.498 87.4613 27.7138 87.389 27.8576C87.389 28.0014 87.3167 28.2172 87.3167 28.361C87.3167 28.5049 87.2443 28.7206 87.2443 28.8644C87.2443 28.9363 87.2443 29.0083 87.2443 29.1521C87.2443 29.2959 87.2443 29.5117 87.2443 29.6555C87.2443 29.7274 87.2443 29.7993 87.2443 29.8712C87.2443 31.5253 87.389 33.1794 87.7506 34.8334C87.823 35.0492 87.823 35.193 87.8953 35.4087C87.9676 35.7683 88.1123 36.1998 88.1846 36.5594C88.257 36.847 88.3293 37.0628 88.4016 37.2785C88.4739 37.6381 88.6186 37.9258 88.6909 38.2853C89.1973 39.6517 89.7759 41.0181 90.4269 42.3126C90.5715 42.6003 90.7162 42.8879 90.8609 43.1756C91.3672 44.0386 91.8735 44.9016 92.4521 45.6926C92.8138 46.196 93.1031 46.6275 93.4648 47.059C93.6094 47.2028 93.6818 47.3467 93.8264 47.4905C93.9711 47.7063 94.1881 47.922 94.3327 48.0658C94.4774 48.2097 94.6221 48.3535 94.6944 48.4973C94.7667 48.5692 94.8391 48.6412 94.9114 48.7131L94.9837 48.785C109.956 56.9114 99.1066 32.1725 104.097 27.6419C107.28 24.7653 113.5 28.7925 116.249 26.8508C117.623 25.844 117.551 23.9023 116.466 22.3921C113.066 17.7895 107.642 12.8273 110.39 10.0226C111.909 8.87197 114.802 9.73495 120.155 9.73495Z" fill="#9D9D9C"/>
<path d="M120.3 85.318H117.262L117.117 65.2536L113.862 36.4155L114.658 35.3368L118.925 63.4557L122.036 43.3913L122.831 44.1824L119.721 66.9796L120.3 85.318Z" fill="#37474F"/>
<path d="M128.328 41.7373L121.167 52.2369V51.3739L127.894 41.3058L128.328 41.7373Z" fill="#37474F"/>
<path d="M115.815 49.9356L109.739 41.7373L110.029 41.3058L115.96 48.9288L115.815 49.9356Z" fill="#37474F"/>
<path d="M117.334 32.3883L115.526 42.3126L115.092 41.3058L116.9 32.3164L117.334 32.3883Z" fill="#37474F"/>
<path d="M58.7456 85.5337H110.028V37.9257L84.4231 0.889328L58.7456 27.2823V85.5337Z" fill="#DADADA"/>
<path d="M117.551 46.6275H67.7869V85.5337H117.551V46.6275Z" fill="#F6F6F6"/>
<path d="M110.028 55.4012H75.3094V85.5337H110.028V55.4012Z" fill="#E85451"/>
<path d="M75.3807 85.5457H77.6953V55.4131H75.3807V85.5457Z" fill="#DADADA"/>
<path d="M88.98 21.0976H79.8663V37.9258H88.98V21.0976Z" fill="#37474F"/>
<path d="M88.9802 21.0976H86.5933V37.9258H88.9802V21.0976Z" fill="white"/>
<path d="M110.028 55.4012H77.6966V56.0484H110.028V55.4012Z" fill="#CE3838"/>
<path d="M110.028 57.8463H77.6966V58.4935H110.028V57.8463Z" fill="#CE3838"/>
<path d="M110.028 60.2914H77.6966V60.9387H110.028V60.2914Z" fill="#CE3838"/>
<path d="M110.028 62.8084H77.6966V63.4557H110.028V62.8084Z" fill="#CE3838"/>
<path d="M110.028 65.2536H77.6966V65.9008H110.028V65.2536Z" fill="#CE3838"/>
<path d="M110.028 67.6987H77.6966V68.3459H110.028V67.6987Z" fill="#CE3838"/>
<path d="M110.028 70.1438H77.6966V70.791H110.028V70.1438Z" fill="#CE3838"/>
<path d="M110.028 72.5889H77.6966V73.2362H110.028V72.5889Z" fill="#CE3838"/>
<path d="M110.028 75.0341H77.6966V75.6813H110.028V75.0341Z" fill="#CE3838"/>
<path d="M110.028 77.4792H77.6966V78.1264H110.028V77.4792Z" fill="#CE3838"/>
<path d="M110.028 79.9962H77.6966V80.6435H110.028V79.9962Z" fill="#CE3838"/>
<path d="M110.028 82.4413H77.6966V83.0886H110.028V82.4413Z" fill="#CE3838"/>
<path d="M110.028 84.8865H77.6966V85.5337H110.028V84.8865Z" fill="#CE3838"/>
<path d="M28.6561 0.889328H84.4232L58.7457 27.2823H2.97864L28.6561 0.889328Z" fill="#37474F"/>
<path d="M39.4334 31.0938V15.4162H22.3633V26.7069L2.97864 27.2822V85.5337H58.7457V37.9257V27.2822H43.1223L39.4334 31.0938Z" fill="#F6F6F6"/>
<path d="M25.9049 31.0849L35.9589 31.0849L35.9589 18.1402L25.9049 18.1402L25.9049 31.0849Z" fill="#37474F"/>
<path d="M25.8669 31.0849L28.2538 31.0849L28.2538 18.1402L25.8669 18.1402L25.8669 31.0849Z" fill="#DADADA"/>
<path d="M34.6616 85.5536H51.0084L51.0084 46.6474H34.6616V85.5536Z" fill="#37474F"/>
<path d="M34.6674 85.5536H38.4286L38.4286 46.6474H34.6674L34.6674 85.5536Z" fill="#DADADA"/>
<path d="M39.4336 15.4162H54.9847L39.4336 31.0938V15.4162Z" fill="#DADADA"/>
<path d="M51.0064 51.5896H42.1097V85.5337H51.0064V51.5896Z" fill="#737D8E"/>
<path d="M51.0064 55.4012H38.4208V56.5518H51.0064V55.4012Z" fill="white"/>
<path d="M35.9617 22.0325H30.4645V31.0219H35.9617V22.0325Z" fill="#737D8E"/>
<path d="M86.5933 26.0597H82.1088V37.9257H86.5933V26.0597Z" fill="#737D8E"/>
<path d="M13.2496 46.2679C12.5986 46.6275 12.0923 47.1309 11.5859 47.7062C9.92233 49.7198 9.05436 52.1649 8.9097 54.7539C8.83737 55.6888 8.83737 56.6237 8.9097 57.5586C8.98203 58.4216 8.9097 59.2126 8.9097 60.0756C8.83737 61.8735 8.9097 63.7433 8.9097 65.5412C8.9097 67.1952 8.9097 68.9931 8.04173 70.5034C7.75241 71.0787 7.46308 71.654 7.17376 72.2293C7.10143 72.4451 6.95677 72.5889 6.81211 72.7327C6.66744 72.8766 6.37812 72.8766 6.23346 72.8046C6.30579 73.0923 6.52278 73.38 6.81211 73.5238C7.10143 73.6676 7.39075 73.6676 7.68008 73.5957C7.82474 73.5238 7.9694 73.4519 8.11406 73.4519C8.40339 73.38 8.69271 73.5957 8.9097 73.6676C9.12669 73.7395 9.41602 73.6676 9.63301 73.5238C9.85 73.38 9.92233 73.1642 10.067 72.9485C10.2117 72.7327 10.3563 72.4451 10.501 72.2293C11.2243 70.4314 11.0796 68.4178 10.8626 66.4761C10.718 65.4693 10.5733 64.4625 10.5733 63.5276C10.5733 62.6646 10.4286 61.5139 10.8626 60.7948C11.2243 60.0756 11.4413 59.2846 11.5859 58.4935C11.8029 57.6305 11.9476 56.7675 12.0923 55.9045C12.5986 52.956 13.0326 49.9356 14.6238 47.3466C14.7685 47.1309 14.9132 46.8432 15.0578 46.6275C15.2025 46.3398 15.3471 46.124 14.9855 46.0521C14.4792 45.7645 13.7559 45.9802 13.2496 46.2679Z" fill="#E85451"/>
<path d="M18.7467 55.2573C18.4574 54.2505 18.2404 52.5245 17.2278 52.5245C16.2152 52.5245 15.7088 53.5313 15.7088 54.5381C15.5642 57.7743 19.1084 60.8667 19.687 63.3118L21.1337 62.4488C20.555 60.2194 19.3977 57.4867 18.7467 55.2573Z" fill="#FFA471"/>
<path d="M26.4139 56.6237C26.7032 55.6169 26.9202 53.8909 27.9328 53.8909C28.9455 53.8909 29.4518 54.8977 29.4518 55.9045C29.5965 59.1407 26.0522 62.2331 25.4736 64.6782L24.027 63.8152C24.678 61.5858 25.8352 58.8531 26.4139 56.6237Z" fill="#FFA471"/>
<path d="M29.3071 87.1877L29.1624 86.6124C29.1624 86.4686 29.1624 86.3967 29.0901 86.2528C29.0178 85.8932 28.7285 84.3111 28.6561 84.0954L29.6688 83.9515C29.5241 83.0885 29.9581 85.5337 30.1027 85.8932C30.1751 86.0371 30.2474 86.1809 30.3197 86.3247C30.3197 86.3247 30.3197 86.3247 30.2474 86.3247C30.1751 86.3247 29.3071 87.1877 29.3071 87.1877Z" fill="#FFA471"/>
<path d="M32.0557 88.1945C30.7537 88.4103 28.9454 88.1226 28.9454 88.1226V88.0507C28.9454 88.0507 28.9454 88.0507 28.9454 87.9788C28.9454 87.9788 28.9454 86.5405 29.1624 86.2528C29.7411 86.8281 30.0304 85.1741 30.1751 85.6775C30.4644 86.7562 32.4896 87.6192 32.562 87.763C32.562 87.835 32.779 88.1945 32.0557 88.1945Z" fill="#131616"/>
<path d="M30.3198 83.3043C29.8858 78.7017 28.6562 66.9795 28.2222 64.3906C28.2222 64.3186 28.2222 64.2467 28.1498 64.1748C28.0052 63.168 27.8605 62.2331 27.6435 61.2263C27.5712 61.0105 27.5712 60.7229 27.4989 60.5071C27.4265 60.2195 27.3542 59.9318 27.2819 59.6441C27.2819 59.5003 27.2095 59.3565 27.1372 59.2126H21.9294C22.074 59.7161 22.291 60.579 22.5804 61.6578C22.5804 61.7297 22.5804 61.7297 22.5804 61.8016C22.6527 62.2331 22.7974 62.5927 22.942 63.0961C22.942 63.2399 23.0143 63.3118 23.0143 63.4557C23.3037 64.4625 23.593 65.685 23.8823 66.8357C23.8823 66.9795 23.9546 67.1233 23.9546 67.2672C25.4736 73.3081 27.3542 80.4996 27.7159 82.0817C28.0052 83.3043 28.3668 84.383 28.6562 85.1741L30.3921 84.9583C30.3921 84.5268 30.3198 84.0234 30.3198 83.3043Z" fill="#DDDDDD"/>
<path d="M28.6561 85.0302C28.3668 84.2392 28.0051 83.0885 27.7158 81.9379C27.3541 80.3557 25.4012 72.8046 23.8822 66.6918C23.7376 64.9659 23.4483 63.2399 23.2313 61.5139C23.3036 61.5858 23.3036 61.7297 23.3759 61.8735C24.1716 63.3837 24.3886 65.5412 24.8225 67.2672C25.4012 69.2808 25.7628 71.3663 26.3415 73.38C26.9201 75.3936 27.3541 77.4072 28.1498 79.3489C28.5837 80.3558 29.2347 82.729 30.392 83.2324C30.4644 83.9515 30.5367 84.4549 30.5367 84.8145L28.6561 85.0302Z" fill="#C6C6C6"/>
<path d="M21.2059 87.3315C21.2059 87.3315 21.4952 84.8145 21.5676 84.383L20.6273 84.5988C20.6273 84.8145 20.5549 85.3179 20.4103 85.8213C20.338 86.0371 20.2656 86.3247 20.2656 86.5405C20.2656 86.5405 20.2656 86.5405 20.338 86.5405L21.2059 87.3315Z" fill="#FFA471"/>
<path d="M21.5675 88.0507V88.1226C21.5675 88.1226 19.1083 88.3384 19.0359 87.9069C19.0359 87.763 19.1083 87.6192 19.2529 87.4754C19.3253 87.4035 19.4699 87.2596 19.5423 87.1877L19.6146 87.1158C20.3379 86.2528 19.9763 85.6775 20.4826 85.7494C20.9889 85.7494 20.9889 86.3966 21.3505 86.3966C21.5675 86.6124 21.5675 87.9788 21.5675 88.0507Z" fill="#131616"/>
<path d="M19.0361 59.3565C18.9637 64.6782 19.8317 81.866 20.121 84.9583L21.9293 85.1022C22.2186 82.1536 23.8099 65.8289 24.4609 59.3565H19.0361Z" fill="#DDDDDD"/>
<path d="M25.4736 48.5692C25.5459 49.3602 25.6182 50.0075 25.6906 50.5828C25.9076 51.7334 26.1246 53.1717 26.1246 54.3224C26.1246 54.9696 25.9799 55.7607 26.7032 55.9764C26.7755 55.9764 27.0649 55.9764 27.4988 55.9764C28.3668 55.9045 29.7411 55.7607 29.7411 55.545C29.7411 55.2573 29.7411 54.9696 29.7411 54.682C29.7411 53.6032 29.7411 52.4526 29.6688 51.5177C29.5964 50.0794 29.4518 48.5692 29.2348 47.1309C29.0178 45.6925 28.5115 44.3262 27.3542 44.1823C26.6309 44.0385 26.0522 44.9734 26.0522 44.9734C25.4736 45.7645 25.4013 47.2028 25.4736 48.5692Z" fill="#737D8E"/>
<path d="M28.8731 48.8568C28.8008 49.576 28.8008 50.7986 28.5115 51.5177C28.4391 51.6615 28.4391 51.7335 28.3668 51.8054L28.2945 51.8773C27.9328 52.5245 27.9328 53.3156 27.7881 54.1067C27.4988 55.8326 27.2095 57.4867 27.4988 59.2126C27.8605 61.2263 28.7284 63.0961 29.5241 64.9659C30.4644 67.3391 31.3324 69.9999 30.6814 72.517C30.609 72.8766 30.3921 73.3081 30.1027 73.5238C29.8134 73.6676 29.4518 73.5957 29.1624 73.5957C25.9075 73.0923 22.6527 73.1642 19.3978 73.8115C18.7468 73.9553 18.0235 74.0991 17.3725 74.3149C17.4448 70.8629 17.6618 67.411 18.0235 63.9591C18.1681 62.2331 18.3851 60.5071 18.6021 58.7812C18.8191 57.3428 19.2531 55.9045 19.3254 54.4662C19.3978 53.5313 19.3978 52.5964 19.2531 51.7334C18.9638 50.1513 19.0361 48.4973 18.6745 47.4185C18.5298 46.9151 18.3128 45.9083 18.2405 44.9734C18.2405 44.9015 18.2405 44.7577 18.2405 44.6857C18.2405 44.3262 18.3128 44.0385 18.3851 43.8228C18.3851 43.7508 18.4575 43.6789 18.5298 43.607C18.5298 43.607 18.5298 43.607 18.5298 43.5351C18.7468 43.2474 19.0361 43.0317 19.4701 42.8879C19.5424 42.8159 19.6871 42.8159 19.7594 42.8159C20.3381 42.6002 21.0614 42.6002 21.7124 42.6721C22.1463 42.744 25.9799 42.9598 25.9799 42.9598C26.6309 43.5351 27.4988 43.7508 28.1498 44.2543C28.7284 44.7577 28.8731 45.9802 28.9454 46.6994C29.0178 47.6343 28.9454 47.9939 28.8731 48.8568Z" fill="#737D8E"/>
<path d="M21.9294 42.744C22.508 44.0385 24.8226 45.5487 25.6906 45.5487C26.3416 45.5487 26.6309 44.3262 26.1246 43.3193C26.1246 43.1755 26.1246 42.6002 26.1246 42.5283C26.2692 41.7372 26.4139 41.5215 26.5586 41.0181L23.9546 38.2853C23.9546 38.9325 23.8823 39.5078 23.6653 40.0832C23.5207 40.5146 23.3037 41.0181 23.0867 41.4495C22.7974 42.0249 22.508 42.4564 21.9294 42.744Z" fill="#FFA471"/>
<path d="M24.6056 42.6721C25.2566 43.1755 25.9799 43.1036 26.1245 42.4564C26.2692 41.6653 26.4139 41.4495 26.5585 40.9461L23.9546 38.2853C23.9546 38.9325 23.8823 39.5078 23.6653 40.0832V40.1551C23.4483 41.0181 23.81 42.0968 24.6056 42.6721Z" fill="#E07F4F"/>
<path d="M28.4391 35.1929C28.8007 35.5525 28.9454 36.9908 28.5114 39.364C28.2944 40.5147 27.4264 42.4564 26.7755 42.744C26.1968 42.9598 24.6055 42.8159 23.9546 41.5934C23.1589 40.1551 23.5206 39.2202 23.5929 38.2134C23.9546 33.5389 26.9925 33.8984 28.4391 35.1929Z" fill="#FFA471"/>
<path d="M23.2314 38.9325C23.4483 38.9325 23.81 39.364 24.027 39.364V39.2921C24.027 38.6448 24.1717 37.3504 24.3163 36.7751C24.3886 36.5593 27.9329 37.638 28.2222 36.2716C28.2222 36.1278 28.2945 35.984 28.2222 35.8401C28.1499 35.4806 27.9329 34.9772 27.4989 34.4018C27.4989 34.4018 24.3886 32.7478 23.159 34.8333C23.0144 35.121 22.8697 35.4087 22.7974 35.6963C22.725 35.9121 22.725 36.0559 22.725 36.2716C22.725 37.4223 23.376 38.3572 23.2314 38.9325Z" fill="#3A2E2D"/>
<path d="M23.7377 38.9325H24.0993C24.0993 39.364 24.1717 39.9393 24.3887 40.3708C24.6057 40.8742 27.3542 40.227 27.8605 40.9461C28.0052 41.1619 27.8605 41.3776 27.7882 41.5934C27.6436 42.0249 27.4266 42.2406 27.1372 42.6002C26.8479 42.9598 26.4139 43.0317 25.9076 43.0317C25.4736 43.0317 24.895 42.9598 24.5333 42.744C24.1717 42.4564 23.8823 42.0249 23.7377 41.5934C23.593 41.1619 23.4484 40.3708 23.4484 39.9393C23.4484 39.5797 23.7377 39.364 23.7377 38.9325Z" fill="#0F0C0B"/>
<path d="M26.0522 33.8984L27.4265 34.7614C27.4265 35.121 27.4988 35.4087 27.5711 35.6244C27.6435 35.7682 27.7881 35.984 27.9328 36.1278C28.3668 36.5593 28.8008 37.1346 28.7284 37.7819C29.0901 37.4942 29.3794 37.1346 29.5241 36.6312C29.6687 36.2716 29.5964 35.8401 29.4517 35.4806C29.0901 34.6176 27.7158 33.395 26.0522 33.8984Z" fill="#3A2E2D"/>
<path d="M23.2312 38.9325C23.4482 38.9325 23.8099 39.364 24.0269 39.364C24.0269 39.2921 24.0992 38.9325 24.0992 38.9325C24.0992 38.2853 24.1715 37.2785 24.3162 36.775C24.3885 36.5593 27.9327 37.638 28.2221 36.2716C28.1497 36.0559 28.0774 35.9121 27.9327 35.7682L27.7158 34.9772C27.7881 35.984 26.4861 36.0559 25.7628 35.984C25.3288 35.9121 24.8949 35.7682 24.5332 35.8401C24.0992 35.9121 24.0269 36.1278 23.8099 36.4155C23.8099 36.1278 23.8099 35.9121 23.8822 35.6244C23.6652 35.9121 23.4482 36.1997 23.3759 36.4874C23.1589 36.2716 23.0142 35.984 22.8696 35.6244C22.7973 35.8401 22.7973 35.984 22.7973 36.1997C22.7249 37.4223 23.3759 38.3572 23.2312 38.9325Z" fill="#0F0C0B"/>
<path d="M22.5803 38.5729C22.6527 37.3504 23.81 37.9257 23.81 39.0044C23.81 39.364 23.7376 40.3708 23.0143 39.6517C22.6527 39.364 22.508 39.0044 22.5803 38.5729Z" fill="#FFA471"/>
<path d="M22.9421 38.2853C22.7974 38.2853 22.7251 38.501 22.7251 38.7168C22.6528 38.4291 22.7251 37.9976 23.0867 38.0695C23.3761 38.1414 23.5207 38.501 23.5931 38.7168C23.0144 38.7887 23.5931 39.2921 23.5931 39.2921C23.3761 39.364 23.1591 39.2921 23.0867 39.0044C23.0144 38.7887 23.1591 38.501 23.4484 38.5729C23.3037 38.501 23.0867 38.2853 22.9421 38.2853Z" fill="#E07F4F"/>
<path d="M28.0051 36.1278C28.4391 36.5593 28.8731 37.1346 28.8007 37.7819C29.1624 37.4942 29.4517 37.1346 29.5964 36.6312C29.5964 36.5593 29.5964 36.5593 29.524 36.4874C29.307 35.6963 28.2944 35.4806 27.6434 34.9772L27.5711 35.5525C27.6434 35.7682 27.7881 35.9121 28.0051 36.1278Z" fill="#0F0C0B"/>
<path d="M22.7974 41.953C22.6527 42.3125 25.112 45.2611 25.6906 45.5487C24.7503 45.6206 23.7377 45.333 22.7974 46.196C22.6527 45.0453 22.2187 43.6789 21.5677 42.744L22.7974 41.953Z" fill="#4E5866"/>
<path d="M26.1245 43.1036C26.3415 43.3194 26.6309 43.3194 26.7032 43.5351C26.7755 43.6789 26.8478 44.2543 26.8478 44.47C26.8478 44.9734 27.0648 45.4768 26.7755 45.9802C26.4139 45.6926 26.1969 45.4768 25.6182 45.5487C26.2692 44.5419 26.1245 43.1036 26.1245 43.1036Z" fill="#4E5866"/>
<path d="M19.3254 51.8054C19.0361 50.2232 19.1084 48.5692 18.7468 47.4904C18.6021 46.987 18.3851 45.9802 18.3128 45.0453C18.3128 44.6138 18.3128 44.1823 18.4575 43.8947C18.4575 43.8228 18.5298 43.7508 18.6021 43.6789C19.0361 43.4632 19.6148 43.5351 20.1211 43.9666C20.989 44.7577 21.1337 46.124 21.2784 47.2747C21.7124 52.0211 19.4701 52.6683 19.3254 51.8054Z" fill="#737D8E"/>
<path d="M20.6274 48.0658C20.4827 48.7849 20.2657 49.5041 20.1211 50.0075C19.7594 51.0862 19.3254 52.4526 19.1084 53.6032C19.0361 54.2505 19.0361 55.0416 18.2405 55.1854C18.1681 55.1854 17.8788 55.1135 17.4448 55.0416C16.5769 54.8258 15.2749 54.4662 15.2749 54.2505C15.2749 53.9628 15.3472 53.6752 15.3472 53.3875C15.4919 52.3088 15.7089 51.23 15.9259 50.2951C16.2152 48.9287 16.5769 47.3466 17.0832 45.9802C17.5895 44.5419 18.2405 43.3194 19.3978 43.3194C20.1211 43.3194 20.5551 44.3262 20.5551 44.3262C21.0614 45.2611 20.9167 46.7713 20.6274 48.0658Z" fill="#737D8E"/>
<path d="M20.7721 47.0589C20.6998 47.4185 20.6998 47.7062 20.6274 48.0658C20.4828 48.7849 20.2658 49.5041 20.1211 50.0075C19.7595 51.0862 19.3255 52.4526 19.1085 53.6032C19.0362 54.2505 19.0362 55.0416 18.2405 55.1854C18.1682 55.1854 17.8789 55.1135 17.4449 55.0416C16.5769 54.8258 15.275 54.4662 15.275 54.2505C15.275 53.9628 15.3473 53.6752 15.3473 53.3875C15.7813 54.1067 17.8789 53.8909 18.5299 53.6752C18.7468 52.5245 19.2532 51.3739 19.6148 50.2232C20.0488 49.2883 20.1935 47.7781 20.7721 47.0589Z" fill="#4E5866"/>
<path d="M15.4919 84.6707C15.6365 84.4549 15.7812 84.2392 15.8535 84.0234L16.8661 84.7426C17.2278 85.246 18.2404 86.5405 18.4574 86.9001C18.6744 87.3315 18.7467 87.5473 18.3851 87.6911C17.3001 87.9788 16.5045 87.9069 15.9982 87.6911C15.4195 87.1877 15.4195 86.3247 15.4195 85.7494C15.3472 85.4617 15.3472 84.9583 15.4919 84.6707Z" fill="#131616"/>
<path d="M18.3851 87.2596C18.0234 87.4034 16.9384 87.5473 16.4321 87.4035H16.3598C16.3598 87.4035 16.2875 87.4034 16.2875 87.3315C16.1428 87.1877 15.9981 87.0439 15.8535 86.8281C15.5642 86.3966 15.4195 85.8932 15.4195 85.4617V85.3898C15.4195 85.3179 15.4195 85.246 15.4195 85.1741C15.4195 85.1022 15.4195 85.1022 15.4195 85.0302V84.9583V84.8864C15.4195 84.6707 15.4918 84.4549 15.5642 84.3111C15.6365 84.1673 15.7088 84.0234 15.7811 83.8796C15.7811 83.8077 15.8535 83.8077 15.8535 83.7358C15.9258 83.7358 15.9258 83.7358 15.9981 83.7358H16.0705L16.9384 84.3111L17.0108 84.383C17.1554 84.5268 17.2278 84.6707 17.3724 84.8864C17.5894 85.1741 17.7341 85.5336 17.8787 85.7494C18.0234 86.0371 18.5297 86.6124 18.6021 86.9C18.5297 87.1158 18.4574 87.2596 18.3851 87.2596Z" fill="#131616"/>
<path d="M17.1554 81.3626C17.1554 82.0817 17.1554 82.8009 17.2277 83.4481C17.2277 83.5919 17.2277 83.7358 17.0831 83.8077C17.0107 83.8796 16.9384 83.8796 16.8661 83.8077C16.8661 83.8077 16.8661 83.8077 16.7937 83.8077C16.5044 83.8077 16.2874 83.7358 15.9981 83.7358H15.9258C15.8534 83.7358 15.8534 83.7358 15.7811 83.7358C15.7811 83.7358 15.7811 83.7358 15.7088 83.7358C15.6364 83.7358 15.6364 83.6638 15.6364 83.6638C15.6364 83.5919 15.6364 83.5919 15.6364 83.52C15.6364 83.3043 15.6364 83.0885 15.6364 82.8728C15.6364 82.729 15.6364 82.5132 15.6364 82.3694C15.6364 82.2255 15.5641 82.1536 15.5641 82.0098C15.4918 81.7221 15.4918 81.5064 15.4194 81.2187C15.3471 80.8591 15.2748 80.5715 15.2025 80.2119C15.2025 80.0681 15.2025 79.9243 15.2025 79.7085C15.2025 78.9894 15.2748 78.3421 15.2748 77.623C15.3471 76.8319 15.3471 76.1127 15.4194 75.3217C16.2874 75.3217 17.1554 75.3217 18.0234 75.2498C17.8064 76.6161 17.5894 77.9825 17.3724 79.3489C17.3 80.14 17.2277 80.7872 17.1554 81.3626Z" fill="#E85451"/>
<path d="M15.9258 81.3626C15.9258 82.2256 15.9981 83.0885 16.4321 83.8077C16.4321 83.8077 16.0704 83.8077 15.9981 83.8077H15.9258C15.8534 83.8077 15.8534 83.8077 15.7811 83.8077C15.7811 83.8077 15.7811 83.8077 15.7088 83.8077C15.6364 83.8077 15.6364 83.7358 15.6364 83.7358C15.6364 83.6639 15.6364 83.6639 15.6364 83.5919C15.6364 83.3762 15.6364 83.1605 15.6364 82.9447C15.6364 82.8009 15.6364 82.5851 15.6364 82.4413C15.6364 82.2975 15.5641 82.2256 15.5641 82.0817C15.4918 81.7941 15.4918 81.5783 15.4194 81.2907C15.3471 80.9311 15.2748 80.6434 15.2025 80.2838C15.2025 80.14 15.2025 79.9962 15.2025 79.7804C15.2025 79.0613 15.2748 78.414 15.2748 77.6949C15.3471 76.9038 15.3471 76.1847 15.4194 75.3936C15.4194 75.3217 16.1428 75.3936 16.2151 75.3936C16.1428 76.4004 16.1428 77.3353 16.0704 78.3421C15.9981 79.2051 15.9981 80.0681 15.9981 80.8592C15.9258 81.0749 15.9258 81.2187 15.9258 81.3626Z" fill="#CE3838"/>
<path d="M19.6147 67.1952C19.47 67.7705 19.3977 68.274 19.253 68.8493C19.036 69.928 18.819 71.0067 18.602 72.0855C18.385 73.1642 18.168 74.3148 18.0234 75.3936C18.0234 75.3936 18.0234 75.3936 18.0234 75.4655C17.1554 75.4655 16.2874 75.5374 15.4195 75.5374C15.3471 76.3285 15.3471 77.0476 15.2748 77.8387C15.2748 78.5578 15.2025 79.2051 15.2025 79.9242C15.2025 80.0681 15.2025 80.2119 15.2025 80.4276C15.1302 80.2119 15.1302 79.9962 15.0578 79.7804C14.9132 78.9893 14.6962 78.1264 14.6962 77.3353C14.6962 76.6881 14.7685 76.1127 14.8408 75.6093C14.9132 75.2497 14.9855 74.9621 15.1302 74.6025C15.2748 74.0991 15.4195 73.6676 15.5641 73.1642C15.7088 72.6608 15.7811 72.1574 15.8535 71.5821C15.9258 70.2876 15.9981 69.5684 16.0705 68.8493C16.0705 68.4897 16.1428 68.202 16.1428 67.7705C16.1428 67.6986 16.1428 67.5548 16.1428 67.4829V67.411H19.6147V67.1952Z" fill="#E85451"/>
<path d="M17.2277 86.2528C16.7214 86.1809 16.2874 85.6056 16.0704 85.246C15.9981 85.1741 15.9981 85.1022 15.9257 85.0302C15.8534 84.8864 15.7811 84.7426 15.7811 84.5987C15.7811 84.5268 15.7087 84.383 15.7087 84.3111C15.7087 84.2392 15.7087 84.0953 15.7087 84.0234C15.7087 84.0234 15.7087 84.0234 15.7087 83.9515V83.8796C15.7087 83.8796 15.7087 83.8796 15.7087 83.8077C15.7087 83.8077 15.7087 83.8077 15.7811 83.8077C15.8534 83.8077 15.8534 83.8077 15.9257 83.8077H15.9981C16.2874 83.8077 16.5044 83.8796 16.7937 83.8796C16.866 83.9515 16.866 84.0953 16.866 84.1673C16.866 84.2392 16.9384 84.383 16.9384 84.4549C16.9384 84.5987 17.0107 84.6707 17.0107 84.8145C17.0107 84.8145 17.0107 84.8864 17.083 84.8864C17.083 84.9583 17.1554 85.0302 17.1554 85.1022C17.4447 85.6775 17.8787 86.3247 17.2277 86.2528Z" fill="#FFA471"/>
<path d="M13.9006 85.1741C13.9729 84.8864 14.1176 84.7426 14.1899 84.5268L15.2749 85.1022C15.7089 85.5337 15.9982 86.1809 16.2152 86.5405C16.4322 86.9 16.6492 87.763 16.2152 87.9788C15.8535 88.1945 15.1302 88.3384 14.6962 88.1226C14.0453 87.6911 13.9729 86.8281 13.9006 86.2528C13.8283 85.9651 13.7559 85.4617 13.9006 85.1741Z" fill="#131616"/>
<path d="M13.8282 84.8145C13.9006 84.5268 14.0452 84.383 14.1176 84.1673L15.2025 84.7426C15.6365 85.1741 15.9258 85.8213 16.1428 86.1809C16.3598 86.5405 16.5768 87.4035 16.1428 87.6192C15.7812 87.8349 14.9855 87.8349 14.5515 87.6192C13.9006 87.1877 13.8282 86.4686 13.8282 85.8213C13.7559 85.6056 13.7559 85.1022 13.8282 84.8145Z" fill="#131616"/>
<path d="M16.1428 67.1952C15.9981 68.8493 15.8534 70.4314 15.7088 72.0855C15.7088 72.3731 15.6365 72.6608 15.6365 72.9485C15.5641 73.7395 15.4918 74.6025 15.4918 75.3936C15.4195 76.1847 15.4195 76.9038 15.3471 77.6949C15.3471 78.414 15.2748 79.0613 15.2748 79.7804C15.2748 79.9243 15.2748 80.0681 15.2748 80.2838C15.2748 80.4277 15.2748 80.6434 15.2748 80.7872C15.2025 81.866 15.2025 83.0166 15.1301 84.0953C15.1301 84.1673 15.1301 84.1673 15.1301 84.1673C15.1301 84.2392 15.1301 84.3111 15.1301 84.383H14.1175V84.3111C14.1175 84.2392 14.1175 84.1673 14.1175 84.0953C14.0452 83.8796 14.0452 83.5919 13.9005 83.2324C13.4665 81.4345 13.1049 78.2702 12.9602 77.4791C12.8156 76.6881 12.8156 75.9689 12.8156 75.3217C12.8156 74.2429 12.9602 73.308 12.8879 71.9417C12.8879 71.8697 12.8879 71.7978 12.8879 71.654C12.8156 70.3595 12.8156 69.6404 12.8156 68.8493C12.8156 68.4897 12.8156 68.2021 12.8156 67.7706V67.4829C12.8156 67.3391 12.8156 67.2672 12.8156 67.1233H16.1428V67.1952Z" fill="#FFA471"/>
<path d="M16.1428 67.1952C15.9982 68.8493 15.8535 70.4314 15.7089 72.0855C15.7089 72.3731 15.6365 72.6608 15.6365 72.9485C15.5642 73.7395 15.4919 74.6025 15.4919 75.3936C15.4195 76.4004 15.3472 77.4791 15.3472 78.4859C15.3472 79.277 15.2749 80.0681 15.2749 80.7872C15.2749 81.5783 15.4195 82.2975 15.4195 83.0885C15.4195 83.3043 15.4919 83.8796 15.2025 83.9515C15.2025 83.9515 15.2025 83.9515 15.1302 83.9515C15.0579 83.9515 14.9856 83.9515 14.9132 83.9515C14.6239 83.9515 14.4069 83.9515 14.1176 83.9515C13.7559 83.9515 13.4666 83.9515 13.105 83.9515C13.0326 83.9515 12.9603 83.9515 12.888 83.8796C12.8156 83.8077 12.8156 83.8077 12.8156 83.7358C12.7433 82.8009 12.671 81.9379 12.5986 81.003C12.454 79.3489 12.3816 77.6949 12.454 76.0408C12.454 75.7532 12.5263 75.4655 12.5263 75.1778C12.671 74.0991 12.9603 72.9485 12.9603 71.8697C12.9603 71.7978 12.9603 71.7259 12.9603 71.5821C12.888 70.2876 12.888 69.5684 12.888 68.7774C12.888 68.4178 12.888 68.1301 12.888 67.6986V67.411C12.888 67.2672 12.888 67.1952 12.888 67.0514H16.1428V67.1952Z" fill="#E85451"/>
<path d="M14.9132 84.1673H14.9855C15.1302 84.2392 15.1302 84.3111 15.1302 84.4549C15.2025 84.5988 15.2025 84.7426 15.2749 84.8864C15.3472 85.1022 15.4195 85.3179 15.4918 85.5337C15.6365 85.8932 16.2875 86.972 15.4195 86.972C14.9132 86.972 14.2622 86.1809 14.1176 85.7494C14.0452 85.4617 13.9729 85.1741 13.9729 84.8864C13.9729 84.7426 13.9729 84.5988 13.9729 84.4549C13.9729 84.3111 13.9729 84.2392 14.1176 84.1673C14.1899 84.1673 14.1899 84.1673 14.2622 84.1673C14.4069 84.1673 14.5515 84.1673 14.6962 84.1673C14.8409 84.1673 14.8409 84.1673 14.9132 84.1673Z" fill="#FFA471"/>
<path d="M17.7341 47.7062L18.0957 46.3398C19.5423 47.3466 20.121 48.7849 20.4103 49.2883C21.0613 50.367 21.4953 51.5177 21.0613 52.6683C20.4103 51.0143 17.8787 49.6479 17.7341 47.7062Z" fill="#E85451"/>
<path d="M15.4195 47.0589C15.9258 47.0589 16.2151 47.1309 16.7215 47.4185C17.1554 47.6343 17.5171 47.7781 17.8064 48.2096C18.0957 48.5692 18.3851 49.0007 18.6021 49.3602C18.7467 49.6479 19.7593 50.9424 20.0487 51.0143C20.0487 50.0794 19.6147 48.713 19.036 47.7781C18.7467 47.3466 18.0234 46.4117 18.0957 45.9083C18.1681 45.333 18.3127 44.7576 18.3851 44.2542L15.9258 43.0317C15.9258 43.3193 15.9258 43.607 15.8535 43.8947C15.7811 44.9015 15.6365 46.0521 15.4195 47.0589Z" fill="#FFA471"/>
<path d="M15.9258 43.4632C15.9982 44.5419 16.5045 45.1172 16.9385 45.5487C17.1555 45.7645 17.5895 45.8364 18.0958 45.9083C18.1681 45.333 18.3128 44.7576 18.3851 44.2542L15.9258 43.0317C15.9258 43.3193 15.9258 43.1036 15.9258 43.4632Z" fill="#E07F4F"/>
<path d="M21.1336 74.7464C21.2783 75.034 20.555 75.1778 19.5423 75.2498C19.1083 75.3217 18.602 75.3217 18.0234 75.3217C17.1554 75.3217 16.2874 75.3936 15.4195 75.3936H15.2748C15.1302 75.3936 14.9855 75.3936 14.8408 75.3936C14.6238 75.3936 14.4792 75.3936 14.2622 75.3936C13.6835 75.3936 13.1049 75.3936 12.7432 75.3217C12.5986 75.3217 12.5262 75.3217 12.4539 75.3217C12.2369 75.3217 12.0923 75.3217 12.0199 75.2498H11.9476C11.9476 75.2498 11.8753 75.034 11.8753 74.7464C11.8753 74.5306 11.8029 74.2429 11.8029 73.9553C11.8029 73.7395 11.8029 73.4519 11.7306 73.1642C11.7306 72.8766 11.7306 72.5889 11.6583 72.3012C11.6583 72.0855 11.6583 71.8697 11.6583 71.5821C11.6583 71.3663 11.6583 71.1506 11.6583 70.9348C11.5859 69.2089 11.5859 67.3391 11.5859 65.685C11.5859 65.4693 11.5859 65.3254 11.5859 65.1097C11.5859 65.0378 11.5859 64.9659 11.5859 64.894C11.5859 64.7501 11.5859 64.6063 11.5859 64.3905C11.5859 64.3186 11.5859 64.3186 11.5859 64.2467C11.5859 64.031 11.5859 63.8152 11.5859 63.6714C11.5859 63.5276 11.5859 63.3837 11.5859 63.2399C11.5859 63.0961 11.5859 63.0242 11.5859 62.9522C11.5859 62.9522 11.5859 62.9522 11.5859 62.8803C11.5859 62.8084 11.5859 62.8084 11.5859 62.7365V62.6646C11.5859 62.5927 11.5859 62.5207 11.6583 62.4488C11.6583 62.3769 11.7306 62.2331 11.7306 62.0893C11.8029 61.8735 11.8029 61.6578 11.8753 61.442C11.9476 61.0824 12.0923 60.6509 12.2369 60.2195C12.3816 59.788 12.5262 59.3565 12.5986 58.925C12.6709 58.6373 12.7432 58.3497 12.8879 58.1339C12.8879 58.062 12.9602 57.9901 12.9602 57.9182C13.0326 57.7743 13.0326 57.7024 13.1049 57.5586C13.2495 57.0552 13.4665 56.4799 13.5389 55.9764C13.6112 55.7607 13.6112 55.545 13.6835 55.4011C13.8282 54.8258 13.9005 54.3224 13.9729 53.9628C13.9729 53.8909 13.9729 53.819 13.9729 53.7471C13.9729 53.6752 13.9729 53.6032 13.9729 53.5313C13.9729 53.4594 13.9729 53.3875 13.9729 53.3875C13.9729 53.3156 13.9729 53.2437 13.9729 53.1717C13.9729 53.0998 13.9729 53.0279 13.9729 53.0279C13.9729 52.8841 13.9729 52.7403 13.9005 52.5964C13.8282 52.2369 13.8282 51.9492 13.7559 51.5177C13.7559 51.5177 13.7559 51.5177 13.7559 51.4458C13.6835 51.1581 13.6835 50.8705 13.6112 50.5828C13.6112 50.439 13.5389 50.2951 13.5389 50.0794C13.5389 49.8636 13.4665 49.6479 13.4665 49.4322C13.4665 49.2164 13.4665 49.0007 13.4665 48.7849C13.4665 48.4253 13.4665 48.1377 13.5389 47.85C13.6112 47.5624 13.6112 47.2747 13.7559 47.0589C13.7559 46.987 13.8282 46.9151 13.8282 46.8432V46.7713C13.8282 46.6994 13.9005 46.6994 13.9005 46.6275C14.1175 46.3398 14.2622 46.124 14.4792 45.9802C14.6962 45.7645 14.8408 45.6926 15.0578 45.6206H15.1302C15.3471 45.5487 15.4918 45.5487 15.7088 45.5487H15.7811C16.2874 45.6206 16.6491 45.9083 17.0831 46.2679C17.4447 46.5555 17.7341 46.9151 17.9511 47.1309C18.0234 47.2028 18.4574 47.7781 19.036 48.4253C19.3253 48.713 19.6147 49.0726 19.8317 49.3602C19.8317 49.4322 19.904 49.4322 19.904 49.5041C19.9763 49.576 20.0486 49.6479 20.121 49.7917C20.4826 50.2232 20.6996 50.5109 20.9166 50.9424C20.989 51.1581 21.1336 51.3739 21.2059 51.5896C21.2783 51.7334 21.2783 51.8054 21.2783 51.9492C21.3506 52.5245 21.0613 52.8841 20.6996 53.1717C20.4103 53.3875 20.121 53.6752 19.904 54.1066C19.7593 54.3224 19.687 54.7539 19.5423 55.1854C19.5423 55.2573 19.47 55.4011 19.47 55.473C19.3977 55.6169 19.3977 55.7607 19.3977 55.9764C19.3253 56.1922 19.3253 56.4079 19.253 56.6237C19.1807 56.8394 19.1807 57.0552 19.1807 57.199V57.2709C19.1807 57.3428 19.1807 57.4867 19.1083 57.5586C19.1083 57.6305 19.1083 57.7024 19.1083 57.7743C19.1083 57.8462 19.1083 57.8462 19.1083 57.9182C19.1083 58.062 19.1083 58.1339 19.036 58.2058C19.036 58.2777 19.036 58.4216 19.036 58.6373C19.036 58.7811 19.036 58.9969 19.1083 59.2846C19.1083 59.6441 19.1807 60.0756 19.1807 60.5071C19.1807 60.9386 19.253 61.5139 19.3253 62.0173C19.6147 66.4761 20.338 73.2361 21.1336 74.7464Z" fill="#E85451"/>
<path d="M10.501 60.4352H10.7903C10.718 59.4284 11.152 56.2641 11.803 53.0998C12.5986 49.2883 13.5389 46.7713 14.4069 46.196C14.5516 46.0521 14.7685 46.0521 14.9132 46.0521L14.9855 45.7645C14.6962 45.6925 14.4792 45.7645 14.1899 45.9083C12.9603 46.8432 12.02 50.7985 11.5137 53.0279C10.8627 56.1922 10.4287 59.4284 10.501 60.4352Z" fill="#37474F"/>
<path d="M11.8753 75.3217C11.9476 75.3936 13.4666 75.4655 15.2025 75.4655C15.2025 75.034 15.1302 74.6744 15.0578 74.3149C13.3942 69.4246 13.3942 67.4829 12.9602 65.8289C12.2369 63.0242 13.4666 60.2195 14.1899 57.6305C15.6365 57.7743 16.9384 58.4216 18.8914 58.2777C18.9637 57.4867 19.3977 54.8977 19.7594 54.1786C19.9763 53.7471 20.2657 53.5313 20.555 53.2437C18.7467 53.4594 16.3598 52.6683 16.2151 51.0143C16.1428 49.3602 14.6239 49.3602 14.4792 48.9288C14.2622 48.2096 13.8282 48.9288 13.3942 47.9939C13.3219 48.2815 13.3219 48.6411 13.3219 48.9288C13.3219 49.7198 13.4666 50.6547 13.6112 51.5177C13.6112 51.5177 13.6112 51.5177 13.6112 51.5896C13.7559 52.4526 13.8282 53.2437 13.8282 53.8909C13.8282 54.3943 13.6836 55.1854 13.3942 56.1203C12.8156 58.2777 11.6583 61.2263 11.4413 62.9522C11.2966 65.8289 11.6583 75.1779 11.8753 75.3217Z" fill="#CE3838"/>
<path d="M13.3942 40.3708C14.1899 40.0832 14.8408 40.5146 15.3472 40.9461L16.2151 43.3193C15.1302 44.9015 13.1049 43.9666 12.5986 42.4564C12.4539 41.7372 12.6709 40.6585 13.3942 40.3708Z" fill="#49150F"/>
<path d="M19.8316 38.7887C19.5423 38.3572 18.9636 38.0695 18.4573 37.9257L18.0957 37.8538C17.3 37.4223 16.2151 38.2853 15.9257 38.9325C15.5641 39.7236 15.2748 41.5934 15.3471 42.4564C15.4918 44.2542 17.5894 45.8364 19.036 45.4768C19.9039 45.2611 20.7719 42.744 20.4103 41.9529C19.6869 40.2989 20.6996 40.0112 19.8316 38.7887Z" fill="#FFA471"/>
<path d="M19.036 38.8606C18.8913 39.6517 16.7214 39.2202 16.2874 39.7955C15.9258 40.1551 15.9981 40.8023 15.9258 41.2338C15.8534 41.5934 15.8534 43.1755 15.4195 43.2474L14.9131 42.5283C14.6962 42.3844 14.3345 41.09 14.2622 40.7304C14.1898 40.0832 14.1898 39.2921 14.4792 38.7168C14.6238 38.3572 14.9131 37.9976 15.3471 37.7819C16.0704 37.4223 18.2404 37.2785 18.819 38.2853C19.036 38.501 19.1083 38.6448 19.036 38.8606Z" fill="#632118"/>
<path d="M20.4826 38.0695C20.2656 37.5661 19.6146 37.2065 19.1083 37.1346C18.602 37.0627 17.951 37.2065 17.3 37.4942L16.5044 37.7819C16.7214 37.9976 18.2403 37.7819 18.5297 37.9976C18.819 38.1414 19.036 38.4291 19.253 38.7168C19.3253 38.8606 19.3976 39.0044 19.47 39.1483C19.6146 39.2921 19.7593 39.364 19.9039 39.5078C20.1933 39.7955 20.1933 40.0832 20.1933 40.4427C20.1933 40.5146 20.1933 40.5147 20.1933 40.5866C20.4826 39.8674 20.8442 38.8606 20.4826 38.0695Z" fill="#632118"/>
<path d="M19.036 38.8606C18.8913 39.6517 16.7214 39.2202 16.2874 39.7955C15.9258 40.1551 15.9981 40.8023 15.9258 41.2338C15.8534 41.5934 15.8534 43.1755 15.4195 43.2474L14.9131 42.5283C14.6962 42.3844 14.3345 41.09 14.2622 40.7304C14.1898 40.0832 14.1898 39.2921 14.4792 38.7168C14.4792 38.9325 14.4792 39.2202 14.6238 39.2921C14.9131 39.5078 15.0578 39.0044 15.2748 38.8606C15.4918 38.6448 15.8534 38.4291 16.1428 38.501C15.7811 38.7168 15.3471 39.1483 15.5641 39.5797C15.7088 39.5797 15.7811 39.364 15.8534 39.2921C15.9981 39.2202 16.1428 39.1483 16.2874 39.0763C16.5768 39.0044 16.9384 39.0044 17.3001 39.0044C17.8787 39.0044 18.5297 39.0763 19.036 38.8606Z" fill="#49150F"/>
<path d="M14.6962 43.0317C14.8408 43.4632 15.2025 43.6789 15.4918 43.607C15.7811 43.4632 15.8534 43.0317 15.7088 42.6002C15.5641 42.1687 15.2025 41.9529 14.9131 42.0249C14.6238 42.1687 14.4792 42.6002 14.6962 43.0317Z" fill="#FFA471"/>
<path d="M15.4918 43.2474C15.2748 43.1755 15.1301 43.0317 15.1301 42.8878C15.1301 42.6721 15.3471 42.6002 15.4918 42.744C15.4195 42.6002 14.9132 41.881 14.8408 42.4563C14.9855 42.3125 15.1301 42.4563 15.2025 42.6002C14.9855 42.6002 14.9132 42.8878 14.9855 43.1036C15.0578 43.1755 15.2748 43.3193 15.4918 43.2474Z" fill="#E07F4F"/>
<path d="M11.8753 59.5722H12.3093C12.3093 59.5003 12.3093 59.4284 12.3093 59.4284C12.3093 59.1407 12.3093 58.7092 12.3093 58.4216V58.3497C12.3093 58.2058 12.3093 58.062 12.3816 58.062C12.4539 58.062 12.7433 58.062 12.8156 58.062C12.8879 58.062 12.8879 58.062 12.9603 58.062C13.2496 58.062 13.9006 58.062 14.0452 58.2777C14.1899 58.4935 14.1175 58.8531 14.0452 59.1407C14.0452 59.2846 13.9729 59.3565 13.9729 59.5003H14.4069C14.4069 59.4284 14.4069 59.2846 14.4792 59.2126C14.5515 58.8531 14.6239 58.4216 14.4069 58.1339C14.1175 57.7743 13.3942 57.7743 12.9603 57.7743C12.9603 57.7743 12.8879 57.7743 12.8156 57.7743C12.5263 57.7743 12.3093 57.7743 12.1646 57.8463C11.8753 57.9901 11.803 58.2777 11.803 58.4216V58.4935C11.7306 58.8531 11.803 59.2126 11.803 59.5003C11.8753 59.4284 11.8753 59.5003 11.8753 59.5722Z" fill="#37474F"/>
<path d="M10.1393 63.5995L14.7685 64.031L15.1302 63.8152C15.0578 63.168 17.1554 60.2914 15.8535 59.2845C15.6365 59.1407 14.1899 59.0688 13.4665 59.0688C13.3219 59.0688 13.1772 59.0688 13.1049 59.0688C12.9602 59.0688 12.8156 59.0688 12.6709 59.0688C11.7306 59.0688 11.369 59.1407 11.0796 59.3565C9.70534 60.0756 10.067 62.8084 10.1393 63.5995Z" fill="#737D8E"/>
<path d="M14.6962 63.959C14.6962 63.0241 14.4069 58.7811 16.1428 59.2126C17.3724 59.5003 17.3001 63.0241 17.3001 63.8152L14.6962 63.959Z" fill="#37474F"/>
<path d="M11.586 62.8084L12.1646 62.8803C12.237 62.5207 12.237 62.2331 12.1646 61.9454C12.1646 61.442 12.1647 60.9386 12.3093 60.5071C12.5263 60.0037 12.888 59.5722 13.3219 59.1407C13.1773 59.1407 13.0326 59.1407 12.9603 59.1407C12.8156 59.1407 12.671 59.1407 12.5263 59.1407C12.1646 59.5003 11.8753 59.9318 11.7307 60.3633C11.5137 60.9386 11.5137 61.442 11.5137 62.0173C11.6583 62.1612 11.6583 62.4488 11.586 62.8084Z" fill="#37474F"/>
<path d="M11.5137 61.5139H12.3093V62.1611H11.5137V61.5139Z" fill="#F4BD4D"/>
<path d="M15.6362 60.6509C15.6362 60.8666 15.7809 61.0105 15.9979 61.0105H16.2149C16.4319 61.0105 16.5765 60.8666 16.5765 60.6509C16.5765 60.5071 16.5042 60.3632 16.3595 60.2913H16.2872H16.0702C15.7809 60.3632 15.6362 60.5071 15.6362 60.6509ZM15.7809 60.6509C15.7809 60.5071 15.8532 60.4352 15.9979 60.4352H16.2149H16.2872C16.3595 60.4352 16.4319 60.5071 16.4319 60.6509C16.4319 60.7947 16.3595 60.8666 16.2149 60.8666H15.9979C15.8532 60.8666 15.7809 60.7947 15.7809 60.6509Z" fill="#F4BD4D"/>
<path d="M15.1301 45.6926C15.2748 45.6926 15.4195 45.7645 15.5641 45.9083C16.2151 46.6994 16.5767 49.3602 16.5767 53.2437C16.5767 56.4799 16.2874 59.716 15.9981 60.6509L16.2874 60.7229C16.5767 59.716 16.8661 56.4799 16.8661 53.2437C16.8661 50.9424 16.7937 46.8432 15.7811 45.6926C15.7811 45.6206 15.7088 45.6206 15.7088 45.5487C15.4918 45.6206 15.2748 45.6206 15.1301 45.6926Z" fill="#37474F"/>
<path d="M12.0923 55.7607C12.8156 55.545 13.7559 53.9628 14.3346 52.7403C14.4793 52.3807 14.6239 52.0211 14.6962 51.8054C14.6962 51.7334 14.6962 51.7334 14.6962 51.6615C14.8409 51.0143 14.8409 50.5109 14.8409 50.0075C14.8409 49.576 14.8409 49.2164 14.8409 48.6411L13.6836 47.0589C13.539 47.85 13.1773 48.5692 13.0326 49.2883C12.888 50.0075 12.5986 50.0075 12.3817 50.7266C12.237 51.3739 10.8627 56.1922 12.0923 55.7607Z" fill="#FFA471"/>
<path d="M12.0923 54.2505C12.3093 53.6751 13.9729 53.1717 14.4793 52.8122C14.6239 52.4526 14.6963 52.093 14.7686 51.8773C14.7686 51.8053 14.7686 51.8053 14.7686 51.7334C14.8409 51.23 14.9856 50.7266 15.0579 50.2232L14.9133 50.0794L14.1176 49.0726C14.3346 52.8841 12.0923 52.1649 12.0923 54.2505Z" fill="#E07F4F"/>
<path d="M12.237 50.5109C13.105 47.6343 14.4793 44.5419 15.8535 46.124C16.5769 46.9151 16.1429 48.2815 16.2875 49.2164L15.7089 52.2368C15.4196 52.093 12.0923 51.0862 12.237 50.5109Z" fill="#E85451"/>
<path d="M15.4196 52.1649C15.4919 52.2369 17.0108 51.23 17.4448 50.5828C17.5895 50.439 17.5895 50.2951 17.5172 50.2232C17.8065 49.9356 17.6618 49.576 17.4448 49.2883C17.7341 49.0007 17.5172 48.5692 17.1555 48.4253C17.3725 48.0658 16.8662 47.6343 16.5768 48.0658C16.5768 48.0658 16.5768 48.1377 16.5045 48.1377C16.5045 48.2096 16.4322 48.2815 16.4322 48.3534V48.4253V48.4973C16.4322 48.2815 16.3599 48.1377 16.2152 47.9938C16.2152 48.3534 15.9982 48.5692 15.8535 48.8568C15.7089 49.2883 15.7812 49.576 15.7812 50.0075C15.7812 50.6547 15.7812 51.5177 15.4196 52.1649Z" fill="#FFA471"/>
<path d="M11.5861 54.9696C11.5861 54.0347 12.0924 53.6033 12.5987 53.2437C13.1773 52.8122 14.3346 52.5964 14.8409 52.0211C15.2749 51.5896 15.7812 51.0862 15.8536 50.5109L16.7939 51.1581C16.7216 51.5896 13.973 56.1922 12.5264 56.0484C11.7307 55.9765 11.5861 55.545 11.5861 54.9696Z" fill="#FFA471"/>
<path d="M16.4321 48.3534C16.5768 48.4253 16.6491 48.5692 16.7215 48.713C17.2278 48.713 17.0831 49.0726 17.1554 49.3602C17.3001 49.6479 17.4448 49.8636 17.2278 50.2232C17.3724 50.2951 17.4448 50.439 17.4448 50.5828C17.5894 50.439 17.5894 50.2951 17.5171 50.2232C17.8064 49.9356 17.6618 49.576 17.4448 49.2883C17.7341 49.0007 17.5171 48.5692 17.1554 48.4253C17.3724 48.0658 16.8661 47.6343 16.5768 48.0658C16.5768 48.0658 16.5768 48.1377 16.5045 48.1377C16.5045 48.2096 16.4321 48.2815 16.4321 48.3534C16.5045 48.2815 16.4321 48.3534 16.4321 48.3534Z" fill="#E07F4F"/>
<path d="M12.6718 55.6174C12.6718 55.6174 12.5985 55.5448 12.6718 55.6174C12.5985 55.5448 12.5985 55.5448 12.6718 55.6174Z" fill="#E07F4F"/>
<path d="M11.9477 55.2573C12.1647 55.3292 12.3817 55.545 12.5987 55.6169C12.454 55.8326 11.9477 55.545 11.9477 55.2573Z" fill="#E07F4F"/>
</g>
<defs>
<clipPath id="clip0_440_178">
<rect width="134.657" height="87.3052" fill="white" transform="translate(0.68689 0.889282)"/>
</clipPath>
</defs>
</svg>
