<svg width="18" height="19" viewBox="0 0 18 19" fill="none" xmlns="http://www.w3.org/2000/svg">
<path d="M4.85277 7.1334C4.92706 7.1445 5.00189 7.15005 5.08109 7.15671C5.08764 7.15727 5.0942 7.15782 5.1013 7.15838C5.1013 7.25775 5.1013 7.35656 5.10184 7.45538C5.10239 7.78735 5.10293 8.10156 5.1002 8.42188C5.09911 8.55289 5.09638 8.90097 5.46288 8.91207C5.58141 8.91596 5.67754 8.88265 5.74691 8.81437C5.8556 8.70667 5.86762 8.53957 5.86762 8.42299C5.86707 8.30863 5.86598 8.19372 5.86543 8.0788C5.86216 7.70131 5.85888 7.31104 5.87526 6.92966C5.88073 6.8042 5.94135 6.65486 6.02001 6.57381C7.08619 5.4713 8.17751 4.35713 9.23331 3.28016L9.88548 2.61454C9.91935 2.58012 9.95539 2.54737 9.99363 2.51295C9.99854 2.51739 10.0029 2.52128 10.0073 2.52516L10.6054 3.13138C11.7338 4.27497 12.9005 5.45798 14.041 6.62822C14.0923 6.68096 14.1306 6.8042 14.1317 6.92133C14.1388 7.65468 14.1382 8.40134 14.1377 9.12302C14.1377 9.36951 14.1371 9.61655 14.1371 9.86303C14.1371 9.88412 14.1349 9.90689 14.1327 9.92965C14.1256 10.0079 14.118 10.0967 14.1672 10.17C14.2261 10.2583 14.3026 10.3271 14.3769 10.3937C14.4053 10.4187 14.4332 10.4443 14.4599 10.4704L14.5402 10.5486L14.6156 10.4654C14.6396 10.4393 14.6642 10.4137 14.6893 10.3882C14.7549 10.321 14.8231 10.2516 14.8761 10.1667C14.9198 10.0973 14.9122 10.014 14.9062 9.94686C14.9045 9.92687 14.9023 9.90744 14.9023 9.88857C14.9023 9.27402 14.9023 8.65948 14.9023 8.04549V7.22666C14.9641 7.2039 15.0252 7.18336 15.0848 7.16337C15.2617 7.10397 15.4289 7.04846 15.5671 6.94243C15.7774 6.78088 15.903 6.55549 15.9199 6.30679C15.9401 6.01645 15.8167 5.72001 15.5731 5.4713C13.9913 3.85861 12.5509 2.39526 11.1696 0.997969C11.0462 0.873062 10.9009 0.765364 10.7485 0.685424C10.0898 0.340681 9.35075 0.482242 8.77287 1.06348C7.73071 2.11158 6.67436 3.18023 5.65296 4.21335C5.26625 4.60473 4.87954 4.9961 4.49228 5.38692C4.47644 5.40302 4.46005 5.41912 4.44367 5.43522C4.39396 5.48463 4.34208 5.5357 4.2951 5.59232C4.06406 5.87156 4.00343 6.19632 4.12086 6.53218C4.23939 6.87248 4.49283 7.0801 4.85277 7.1334ZM5.00626 5.95761C5.65405 5.30254 6.30185 4.64747 6.95019 3.9924L8.2425 2.68616C8.60354 2.32143 8.96458 1.95725 9.32399 1.59086C9.5299 1.38102 9.74183 1.28276 9.98926 1.28276C9.99144 1.28276 9.99363 1.28276 9.99581 1.28276L10.0619 1.28331L10.0794 1.24945C10.1242 1.27054 10.169 1.28997 10.2127 1.3094C10.3721 1.37991 10.5224 1.44597 10.6272 1.55089C11.7557 2.67838 12.8929 3.83585 13.9924 4.95502C14.3409 5.30976 14.6888 5.66394 15.0378 6.01812C15.1165 6.09806 15.1563 6.16634 15.1552 6.22185C15.1547 6.26016 15.1334 6.29846 15.0902 6.33899C15.0056 6.41948 14.9368 6.42837 14.7724 6.26016C13.4085 4.86953 12.02 3.45836 10.6764 2.09382L10.5442 1.95947C10.3186 1.7302 10.1586 1.63694 9.99144 1.63694C9.9909 1.63694 9.99035 1.63694 9.98926 1.63694C9.82212 1.63749 9.66154 1.73242 9.43432 1.96336L5.32469 6.14746L5.24822 6.22574C5.0789 6.39894 5.01336 6.44558 4.88227 6.33399C4.83803 6.29624 4.83147 6.26515 4.83093 6.24517C4.83038 6.20575 4.85059 6.11471 5.00626 5.95761Z" fill="#37474F"/>
<path d="M17.455 11.5589C17.437 11.2547 17.2562 10.9777 16.9454 10.7795C16.2583 10.3409 15.5433 10.3365 14.819 10.7679C14.1057 11.1925 13.2897 11.5245 12.3273 11.7815C12.3464 11.3258 12.2202 10.9394 11.9624 10.6618C11.6991 10.3787 11.3157 10.2288 10.8542 10.2271C10.7411 10.2266 10.628 10.2255 10.515 10.2238C10.231 10.2199 9.9371 10.216 9.64706 10.2316C9.20955 10.2555 8.83705 10.1206 8.47819 9.80746C7.79435 9.21179 7.02366 8.9753 6.18797 9.10465C4.90002 9.30395 4.03539 10.1439 3.35973 10.9394C3.25596 11.0615 3.2849 11.3546 3.38322 11.469C3.44166 11.5367 3.51486 11.5756 3.59569 11.58C3.7033 11.5867 3.82018 11.5334 3.94089 11.4224C4.05013 11.3219 4.15883 11.2181 4.26424 11.1176C4.56083 10.835 4.86725 10.5425 5.20098 10.3099C6.23002 9.59262 7.16239 9.65146 8.13572 10.4942C8.54592 10.8495 8.9949 11.0171 9.50778 11.0071C9.99062 10.9977 10.4664 11.0016 10.9519 11.0066C11.343 11.0105 11.5975 11.2547 11.6008 11.6289C11.603 11.8415 11.5386 12.0208 11.4157 12.1479C11.2999 12.2678 11.1382 12.3322 10.9492 12.3334C10.4467 12.3372 9.93546 12.3361 9.4406 12.335L9.20245 12.3345C9.20082 12.3345 9.19972 12.3345 9.19808 12.3345C9.06208 12.3345 8.91024 12.3489 8.81083 12.4533C8.74528 12.5215 8.71415 12.6165 8.71743 12.7364C8.72453 12.9873 8.88402 13.1144 9.19208 13.1144C9.19317 13.1144 9.19426 13.1144 9.19535 13.1144C9.32098 13.1139 9.44661 13.1133 9.57169 13.1128C9.96659 13.1106 10.3751 13.1083 10.7761 13.1167C11.1316 13.1244 11.5861 13.0861 11.963 12.7203C11.9979 12.6859 12.0771 12.667 12.147 12.6503L12.1874 12.6403C13.453 12.3206 14.4444 11.9281 15.3068 11.4052C15.6946 11.1698 16.1114 11.182 16.5112 11.4407C16.6193 11.5106 16.68 11.58 16.6821 11.6361C16.6843 11.6922 16.6303 11.766 16.5287 11.8448L16.3249 12.0036C15.9175 12.3217 15.4958 12.6503 15.0616 12.9396C14.2193 13.5008 13.3006 14.0676 12.2896 14.4146C11.4828 14.691 10.6275 14.7083 9.80054 14.7249C9.67765 14.7271 9.55421 14.7299 9.43131 14.7332C8.61693 14.7549 7.72389 14.7815 6.7014 14.8148C6.56812 14.8193 6.41901 14.8376 6.32452 14.9436C6.26389 15.0119 6.23658 15.1041 6.24423 15.2173C6.26498 15.5371 6.51132 15.5704 6.66644 15.5704C6.68993 15.5704 6.71123 15.5698 6.72925 15.5687C7.70422 15.5337 8.69612 15.5054 9.65525 15.4782C9.99882 15.4682 10.3424 15.4588 10.6859 15.4483C11.6462 15.4199 12.5305 15.2057 13.3126 14.811C14.6765 14.1231 15.9284 13.3137 17.0328 12.4039C17.3239 12.1663 17.473 11.8659 17.455 11.5589Z" fill="#37474F"/>
<path d="M3.37306 12.0188C3.10924 11.664 2.73892 11.4603 2.23969 11.3965L2.21129 11.3926L2.18452 11.4037C2.11024 11.4348 2.03104 11.4636 1.95457 11.4914C1.77651 11.5563 1.59244 11.6235 1.43022 11.7312C1.17624 11.9 0.932084 12.0893 0.695579 12.2719C0.539365 12.3924 0.378235 12.5173 0.21656 12.6344C0.0892945 12.7266 0.0199269 12.8248 0.00354085 12.9348C-0.012299 13.0436 0.0248427 13.1563 0.118243 13.2789C0.264079 13.4716 0.409915 13.6703 0.550835 13.8618C0.61911 13.9551 0.687932 14.0489 0.756753 14.1416L1.52198 15.1764C2.26482 16.1812 3.03332 17.2199 3.78653 18.2436C3.84552 18.3241 3.97552 18.5001 4.17161 18.5001C4.24971 18.5001 4.3382 18.4723 4.43706 18.3996C4.55723 18.3113 4.67848 18.2241 4.79974 18.137C5.09742 17.9227 5.40548 17.7007 5.6966 17.4647C6.29251 16.9801 6.41049 16.1568 5.9708 15.55C5.07557 14.3143 4.16068 13.0791 3.37306 12.0188ZM2.76022 12.4246C3.81494 13.843 4.61622 14.9327 5.3585 15.9581C5.57917 16.2628 5.52728 16.5904 5.21977 16.8335C5.0002 17.0073 4.77079 17.1783 4.54958 17.3437C4.46 17.4109 4.36988 17.4775 4.2803 17.5452C4.27047 17.553 4.25955 17.5596 4.24698 17.5674L0.910236 13.053C1.00746 12.9831 1.10305 12.9131 1.19863 12.8432C1.49467 12.6261 1.77433 12.4218 2.07255 12.2386C2.28393 12.1087 2.58598 12.1903 2.76022 12.4246Z" fill="#37474F"/>
<path d="M11.3023 9.60477C11.3029 9.7591 11.3428 9.87623 11.4203 9.95284C11.4848 10.0167 11.5711 10.0489 11.677 10.0489C11.6819 10.0489 11.6869 10.0489 11.6918 10.0489C11.9206 10.0428 12.0637 9.87679 12.0648 9.61643C12.0654 9.50151 12.0665 9.3866 12.0676 9.27169C12.0714 8.90973 12.0752 8.53612 12.0561 8.16751C12.0244 7.56352 11.5738 7.13162 10.9593 7.11718C10.7348 7.11219 10.5076 7.1133 10.2875 7.11441C10.1832 7.11496 10.0794 7.11552 9.97452 7.11552C9.91826 7.11496 9.86146 7.11663 9.8052 7.11774C9.68722 7.11996 9.57525 7.12218 9.46382 7.11385C8.87666 7.07 8.46537 7.17603 8.20811 7.43805C7.94265 7.70841 7.84106 8.13087 7.88803 8.76706C7.88858 8.7765 7.88858 8.78594 7.88858 8.79537L7.88912 8.81702C7.89623 9.06795 8.0295 9.21395 8.25453 9.21728C8.25726 9.21728 8.26 9.21728 8.26273 9.21728C8.49432 9.21728 8.63906 9.06573 8.64998 8.81092C8.65435 8.71599 8.65381 8.6205 8.65326 8.52835C8.65272 8.45563 8.65271 8.38235 8.65435 8.30963C8.662 8.00985 8.77561 7.89716 9.0722 7.89494C9.65554 7.89105 10.2613 7.89105 10.8719 7.89494C11.1816 7.89716 11.2931 8.0104 11.2974 8.32906C11.3012 8.59774 11.3012 8.87143 11.3007 9.13623C11.3023 9.29278 11.3018 9.44878 11.3023 9.60477Z" fill="#37474F"/>
<path d="M12.7489 2.38913C12.9844 2.4019 13.1225 2.26311 13.1608 1.97444C13.1903 1.75072 13.1963 1.71075 13.6289 1.72685C13.8097 1.73351 13.867 1.80179 13.8648 2.00719C13.8594 2.50515 13.8621 3.00811 13.8659 3.47721C13.8681 3.74423 14.0063 3.90633 14.2352 3.91133C14.239 3.91133 14.2434 3.91133 14.2472 3.91133C14.3548 3.91133 14.4433 3.87802 14.5094 3.81251C14.5875 3.73535 14.6273 3.61988 14.6284 3.46999C14.6295 3.2818 14.629 3.09416 14.629 2.90597V2.66615L14.6251 2.56622C14.6257 2.51459 14.6262 2.46296 14.6268 2.41078C14.629 2.22037 14.6317 2.02385 14.6219 1.82955C14.6006 1.40431 14.3389 1.08455 13.9402 0.994614C13.7053 0.941876 13.4568 0.946317 13.2902 0.954644C12.7763 0.979625 12.3999 1.38543 12.3956 1.91948C12.3928 2.21815 12.5119 2.37581 12.7489 2.38913Z" fill="#37474F"/>
</svg>
