<svg width="142" height="42" viewBox="0 0 142 42" fill="none" xmlns="http://www.w3.org/2000/svg">
<rect x="1.34662" y="0.549744" width="139.91" height="40.9005" rx="10.4451" stroke="#37474F" stroke-width="1.09949"/>
<path d="M50.3257 10.7555C50.3257 11.6354 50.0667 12.3357 49.5476 12.8586C48.9574 13.4802 48.1897 13.791 47.2455 13.791C46.3399 13.791 45.5711 13.476 44.9392 12.845C44.3052 12.215 43.9897 11.4327 43.9897 10.5003C43.9897 9.56689 44.3052 8.78569 44.9392 8.15464C45.5711 7.52465 46.3399 7.2086 47.2455 7.2086C47.6936 7.2086 48.1239 7.2968 48.5313 7.4732C48.9397 7.6496 49.2666 7.88375 49.5121 8.17669L48.9606 8.73109C48.5459 8.23339 47.9745 7.9835 47.2455 7.9835C46.5853 7.9835 46.015 8.21659 45.5335 8.68279C45.052 9.15004 44.8118 9.75484 44.8118 10.5003C44.8118 11.2448 45.052 11.8506 45.5335 12.3168C46.015 12.7841 46.5853 13.0161 47.2455 13.0161C47.9453 13.0161 48.5281 12.782 48.9961 12.3126C49.299 12.0071 49.4734 11.5829 49.5204 11.0369H47.2455V10.2798H50.2819C50.3111 10.4447 50.3257 10.6032 50.3257 10.7555Z" fill="#37474F"/>
<path d="M50.3257 10.7555C50.3257 11.6354 50.0667 12.3357 49.5476 12.8586C48.9574 13.4802 48.1897 13.791 47.2455 13.791C46.3399 13.791 45.5711 13.476 44.9392 12.845C44.3052 12.215 43.9897 11.4327 43.9897 10.5003C43.9897 9.56689 44.3052 8.78569 44.9392 8.15464C45.5711 7.52465 46.3399 7.2086 47.2455 7.2086C47.6936 7.2086 48.1239 7.2968 48.5313 7.4732C48.9397 7.6496 49.2666 7.88375 49.5121 8.17669L48.9606 8.73109C48.5459 8.23339 47.9745 7.9835 47.2455 7.9835C46.5853 7.9835 46.015 8.21659 45.5335 8.68279C45.052 9.15004 44.8118 9.75484 44.8118 10.5003C44.8118 11.2448 45.052 11.8506 45.5335 12.3168C46.015 12.7841 46.5853 13.0161 47.2455 13.0161C47.9453 13.0161 48.5281 12.782 48.9961 12.3126C49.299 12.0071 49.4734 11.5829 49.5204 11.0369H47.2455V10.2798H50.2819C50.3111 10.4447 50.3257 10.6032 50.3257 10.7555Z" fill="#37474F"/>
<path d="M55.1399 8.12427H52.2863V10.1214H54.8599V10.8784H52.2863V12.8755H55.1399V13.6504H51.481V7.35042H55.1399V8.12427Z" fill="#37474F"/>
<path d="M55.1399 8.12427H52.2863V10.1214H54.8599V10.8784H52.2863V12.8755H55.1399V13.6504H51.481V7.35042H55.1399V8.12427Z" fill="#37474F"/>
<path d="M58.5359 13.6501H57.7306V8.12402H55.98V7.35018H60.2865V8.12402H58.5359V13.6501Z" fill="#37474F"/>
<path d="M58.5359 13.6501H57.7306V8.12402H55.98V7.35018H60.2865V8.12402H58.5359V13.6501Z" fill="#37474F"/>
<path d="M63.4023 7.35018H64.2077V13.6501H63.4023V7.35018Z" fill="#37474F"/>
<path d="M67.7791 13.6501H66.9737V8.12402H65.2231V7.35018H69.5297V8.12402H67.7791V13.6501Z" fill="#37474F"/>
<path d="M67.7791 13.6501H66.9737V8.12402H65.2231V7.35018H69.5297V8.12402H67.7791V13.6501Z" fill="#37474F"/>
<path d="M73.6817 12.3084C74.1455 12.7809 74.7127 13.0161 75.3843 13.0161C76.0559 13.0161 76.6231 12.7809 77.0868 12.3084C77.5506 11.8359 77.7835 11.2332 77.7835 10.5003C77.7835 9.76744 77.5506 9.16369 77.0868 8.69224C76.6231 8.21974 76.0559 7.9835 75.3843 7.9835C74.7127 7.9835 74.1455 8.21974 73.6817 8.69224C73.219 9.16369 72.9861 9.76744 72.9861 10.5003C72.9861 11.2332 73.219 11.8359 73.6817 12.3084ZM77.6822 12.8355C77.0659 13.4729 76.3003 13.791 75.3843 13.791C74.4682 13.791 73.7026 13.4729 73.0874 12.8355C72.4711 12.1992 72.1641 11.4212 72.1641 10.5003C72.1641 9.57949 72.4711 8.80039 73.0874 8.16409C73.7026 7.5278 74.4682 7.2086 75.3843 7.2086C76.2951 7.2086 77.0586 7.52885 77.678 8.16829C78.2964 8.80774 78.6055 9.58474 78.6055 10.5003C78.6055 11.4212 78.2974 12.1992 77.6822 12.8355Z" fill="#37474F"/>
<path d="M73.6817 12.3084C74.1455 12.7809 74.7127 13.0161 75.3843 13.0161C76.0559 13.0161 76.6231 12.7809 77.0868 12.3084C77.5506 11.8359 77.7835 11.2332 77.7835 10.5003C77.7835 9.76744 77.5506 9.16369 77.0868 8.69224C76.6231 8.21974 76.0559 7.9835 75.3843 7.9835C74.7127 7.9835 74.1455 8.21974 73.6817 8.69224C73.219 9.16369 72.9861 9.76744 72.9861 10.5003C72.9861 11.2332 73.219 11.8359 73.6817 12.3084ZM77.6822 12.8355C77.0659 13.4729 76.3003 13.791 75.3843 13.791C74.4682 13.791 73.7026 13.4729 73.0874 12.8355C72.4711 12.1992 72.1641 11.4212 72.1641 10.5003C72.1641 9.57949 72.4711 8.80039 73.0874 8.16409C73.7026 7.5278 74.4682 7.2086 75.3843 7.2086C76.2951 7.2086 77.0586 7.52885 77.678 8.16829C78.2964 8.80774 78.6055 9.58474 78.6055 10.5003C78.6055 11.4212 78.2974 12.1992 77.6822 12.8355Z" fill="#37474F"/>
<path d="M79.7354 13.6501V7.35018H80.7151L83.7609 12.2505H83.7964L83.7609 11.0367V7.35018H84.5672V13.6501H83.7264L80.5396 8.51147H80.5052L80.5396 9.72632V13.6501H79.7354Z" fill="#37474F"/>
<path d="M79.7354 13.6501V7.35018H80.7151L83.7609 12.2505H83.7964L83.7609 11.0367V7.35018H84.5672V13.6501H83.7264L80.5396 8.51147H80.5052L80.5396 9.72632V13.6501H79.7354Z" fill="#37474F"/>
<path d="M112.492 31.5H114.441V18.374H112.492V31.5ZM130.047 23.1022L127.813 28.7931H127.746L125.428 23.1022H123.328L126.805 31.0559L124.824 35.4805H126.855L132.215 23.1022H130.047ZM118.994 30.009C118.355 30.009 117.465 29.6888 117.465 28.8939C117.465 27.8817 118.573 27.4932 119.531 27.4932C120.388 27.4932 120.792 27.6791 121.312 27.9321C121.161 29.148 120.119 30.009 118.994 30.009ZM119.229 22.8155C117.818 22.8155 116.356 23.4402 115.752 24.8252L117.482 25.5507C117.852 24.8252 118.54 24.5879 119.263 24.5879C120.271 24.5879 121.295 25.1958 121.312 26.2773V26.4117C120.959 26.2091 120.204 25.9056 119.28 25.9056C117.415 25.9056 115.516 26.9357 115.516 28.8603C115.516 30.617 117.045 31.7489 118.758 31.7489C120.069 31.7489 120.792 31.1577 121.245 30.4647H121.312V31.478H123.193V26.4453C123.193 24.1154 121.464 22.8155 119.229 22.8155ZM107.184 24.7002H104.412V20.201H107.184C108.641 20.201 109.468 21.4138 109.468 22.4501C109.468 23.4675 108.641 24.7002 107.184 24.7002ZM107.134 18.374H102.464V31.5H104.412V26.5272H107.134C109.294 26.5272 111.418 24.9543 111.418 22.4501C111.418 19.9459 109.294 18.374 107.134 18.374ZM81.6679 30.0111C80.3215 30.0111 79.1945 28.8782 79.1945 27.3221C79.1945 25.7492 80.3215 24.5984 81.6679 24.5984C82.9975 24.5984 84.0399 25.7492 84.0399 27.3221C84.0399 28.8782 82.9975 30.0111 81.6679 30.0111ZM83.9062 23.8371H83.8384C83.4007 23.3132 82.5599 22.8397 81.4997 22.8397C79.278 22.8397 77.2423 24.801 77.2423 27.3221C77.2423 29.8253 79.278 31.7709 81.4997 31.7709C82.5599 31.7709 83.4007 31.2974 83.8384 30.7556H83.9062V31.3992C83.9062 33.1075 82.9975 34.021 81.5331 34.021C80.3382 34.021 79.5977 33.1579 79.2947 32.4303L77.5953 33.1411C78.0831 34.3255 79.3793 35.7798 81.5331 35.7798C83.8216 35.7798 85.7571 34.4263 85.7571 31.1283V23.1095H83.9062V23.8371ZM87.1035 31.5H89.0557V18.373H87.1035V31.5ZM91.9322 27.1698C91.8821 25.4447 93.2619 24.5648 94.2542 24.5648C95.0292 24.5648 95.6852 24.9533 95.9035 25.5119L91.9322 27.1698ZM97.9904 25.6809C97.6206 24.6834 96.4926 22.8397 94.1873 22.8397C91.8988 22.8397 89.9978 24.6488 89.9978 27.3053C89.9978 29.8085 91.8821 31.7709 94.4056 31.7709C96.4424 31.7709 97.6206 30.5193 98.1084 29.7917L96.5939 28.7763C96.0894 29.5208 95.399 30.0111 94.4056 30.0111C93.4134 30.0111 92.7062 29.5544 92.2519 28.6587L98.192 26.1881L97.9904 25.6809ZM50.6658 24.2099V26.1041H55.175C55.0402 27.1698 54.6872 27.9479 54.1493 28.4886C53.4923 29.1491 52.4655 29.8767 50.6658 29.8767C47.8885 29.8767 45.718 27.6266 45.718 24.8357C45.718 22.0438 47.8885 19.7947 50.6658 19.7947C52.1636 19.7947 53.2572 20.3869 54.0647 21.1481L55.3943 19.8115C54.2662 18.7289 52.7695 17.8994 50.6658 17.8994C46.8628 17.8994 43.6655 21.0127 43.6655 24.8357C43.6655 28.6587 46.8628 31.7709 50.6658 31.7709C52.7183 31.7709 54.2662 31.0937 55.4779 29.8253C56.724 28.5737 57.1104 26.8149 57.1104 25.3932C57.1104 24.9533 57.077 24.548 57.0091 24.2099H50.6658ZM62.2379 30.0111C60.8916 30.0111 59.7301 28.895 59.7301 27.3053C59.7301 25.6977 60.8916 24.5984 62.2379 24.5984C63.5833 24.5984 64.7447 25.6977 64.7447 27.3053C64.7447 28.895 63.5833 30.0111 62.2379 30.0111ZM62.2379 22.8397C59.7802 22.8397 57.7779 24.717 57.7779 27.3053C57.7779 29.8767 59.7802 31.7709 62.2379 31.7709C64.6946 31.7709 66.6969 29.8767 66.6969 27.3053C66.6969 24.717 64.6946 22.8397 62.2379 22.8397ZM71.9654 30.0111C70.6191 30.0111 69.4576 28.895 69.4576 27.3053C69.4576 25.6977 70.6191 24.5984 71.9654 24.5984C73.3118 24.5984 74.4723 25.6977 74.4723 27.3053C74.4723 28.895 73.3118 30.0111 71.9654 30.0111ZM71.9654 22.8397C69.5087 22.8397 67.5064 24.717 67.5064 27.3053C67.5064 29.8767 69.5087 31.7709 71.9654 31.7709C74.4221 31.7709 76.4244 29.8767 76.4244 27.3053C76.4244 24.717 74.4221 22.8397 71.9654 22.8397Z" fill="#37474F"/>
<path d="M22.4358 20.3954L11.3149 32.2603C11.316 32.2624 11.316 32.2656 11.317 32.2677C11.6586 33.556 12.8284 34.5042 14.2176 34.5042C14.7733 34.5042 15.2945 34.353 15.7416 34.0884L15.7771 34.0674L28.2945 26.8066L22.4358 20.3954Z" fill="#E06967"/>
<path d="M33.6863 18.375L33.6758 18.3677L28.2715 15.2187L22.1831 20.6651L28.2935 26.8054L33.6685 23.688C34.6107 23.1756 35.2509 22.177 35.2509 21.0262C35.2509 19.8818 34.6201 18.8885 33.6863 18.375Z" fill="#F67370"/>
<path d="M11.3148 9.74126C11.2479 9.98906 11.2124 10.2495 11.2124 10.5183V31.4846C11.2124 31.7534 11.2479 32.0137 11.3158 32.2605L22.8179 20.699L11.3148 9.74126Z" fill="#CA4F4D"/>
<path d="M22.5183 21.0012L28.2736 15.2168L15.7708 7.92984C15.3165 7.65579 14.7858 7.49829 14.2187 7.49829C12.8295 7.49829 11.6575 8.44854 11.316 9.73793C11.316 9.73898 11.3149 9.74003 11.3149 9.74108L22.5183 21.0012Z" fill="#E85451"/>
</svg>
