<svg width="21" height="17" viewBox="0 0 21 17" fill="none" xmlns="http://www.w3.org/2000/svg">
<path d="M19.9374 8.69758C18.725 7.47553 17.5119 6.2547 16.2983 5.03388L14.7196 3.44564C14.4177 3.14181 14.0782 2.97919 13.6809 2.94863C13.1853 2.91011 12.6823 2.86304 12.1952 2.81841C11.7706 2.77929 11.3308 2.73833 10.8983 2.70287C10.7489 2.69065 10.6894 2.66069 10.6286 2.50847C10.2101 1.4582 9.31661 0.723382 8.23783 0.542428C7.15662 0.361474 6.07177 0.766175 5.33557 1.62571C5.24567 1.73086 5.16671 1.74308 5.00696 1.74614C4.95654 1.74736 4.90673 1.74797 4.85632 1.74858C4.50766 1.75409 4.14685 1.75898 3.80669 1.85129C2.56816 2.18691 1.6139 3.11919 1.25492 4.34491C0.890462 5.58897 1.1966 6.91494 2.07372 7.89124C2.12231 7.94565 2.15511 8.07403 2.13993 8.15105C2.09498 8.37725 2.03302 8.60588 1.97289 8.82719C1.93341 8.97207 1.89332 9.12185 1.85687 9.27101C1.83379 9.36638 1.80585 9.46542 1.77851 9.56078C1.64366 10.0327 1.49242 10.564 1.88967 11.0689C1.86173 11.0885 1.8344 11.1074 1.80828 11.1264C1.68315 11.2144 1.57503 11.2902 1.46387 11.363C1.20632 11.5311 1.14315 11.7665 1.28103 12.044C1.33874 12.1595 1.39219 12.28 1.44929 12.4071C1.46205 12.4353 1.4748 12.464 1.48817 12.4933C1.44261 12.5233 1.39827 12.552 1.35453 12.5814L1.16319 12.7073C0.790845 12.9512 0.74954 13.1016 0.941486 13.5124C0.990079 13.617 1.03807 13.7209 1.0897 13.834L1.09273 13.8407C1.06722 13.8554 1.04171 13.8701 1.01681 13.8841C0.918404 13.9404 0.824253 13.9948 0.730103 14.0473C0.452511 14.2008 0.383265 14.441 0.535728 14.7235C0.806638 15.2248 1.07633 15.7261 1.34481 16.2273C1.42013 16.368 1.5155 16.4554 1.62848 16.4866C1.66067 16.4957 1.69408 16.5 1.7281 16.5C1.81678 16.5 1.91154 16.4694 2.01541 16.4071C2.18852 16.3032 2.3671 16.2004 2.53961 16.1014C2.82571 15.937 3.12152 15.7664 3.40519 15.5848C3.55887 15.487 3.69614 15.3091 3.75567 15.1318C3.87472 14.7742 3.97616 14.4062 4.07517 14.0498C4.11344 13.9104 4.15232 13.7716 4.1918 13.6329C4.28959 13.2893 4.38678 12.9463 4.48458 12.6028C4.79558 11.5066 5.11751 10.3739 5.44066 9.26123C5.47467 9.14508 5.55242 9.04421 5.58887 9.0332C6.68587 8.68902 7.49921 7.95543 8.0058 6.85259C8.0222 6.81652 8.06776 6.77739 8.09327 6.77006C8.31072 6.70892 8.53304 6.65696 8.76872 6.60072C8.81124 6.59094 8.85437 6.58054 8.8981 6.57015C8.90721 6.65329 8.91632 6.73582 8.92544 6.81774C8.95884 7.11424 8.99043 7.39361 9.00561 7.67972C9.02687 8.06608 9.17508 8.39314 9.45936 8.67985C10.9062 10.1379 12.8111 12.0575 14.7196 13.9752C14.9954 14.2521 15.2025 14.2497 15.4838 13.9666C17.1481 12.2879 18.6065 10.8146 19.9422 9.46297C20.2198 9.18176 20.2186 8.98185 19.9374 8.69758ZM19.0894 9.09556L18.4771 9.70506C17.3473 10.8299 16.2224 11.9493 15.0835 13.0839C15.0428 13.0472 14.9997 13.0075 14.9583 12.9665C14.5429 12.5484 14.128 12.1308 13.7125 11.7127C12.5736 10.5652 11.3952 9.37922 10.232 8.21708C9.98842 7.97377 9.87544 7.73535 9.85357 7.4199C9.81349 6.82752 9.75335 6.22719 9.69564 5.64643C9.65312 5.22033 9.60939 4.77956 9.57355 4.34674C9.54926 4.05025 9.60514 3.83139 9.73938 3.69751C9.85357 3.58319 10.0291 3.52572 10.2618 3.52572C10.3073 3.52572 10.3553 3.52817 10.4057 3.53245C11.5513 3.63454 12.5851 3.72807 13.636 3.84239C13.7818 3.85829 13.9494 3.9347 14.0436 4.02824C15.4892 5.46914 16.9513 6.94245 18.3654 8.36685L19.0894 9.09556ZM5.80875 5.46976C5.6982 5.5315 5.63503 5.64093 5.63442 5.7687C5.63382 5.93131 5.73465 6.08964 5.89683 6.18257C6.17867 6.34274 6.46781 6.48212 6.77395 6.63006C6.87053 6.67652 6.96832 6.72421 7.06794 6.7725C6.63546 7.55623 6.05415 8.02328 5.29548 8.19813C4.93407 8.28127 4.75366 8.45733 4.65162 8.82474C4.34608 9.92575 4.02901 11.0439 3.72226 12.1253C3.49083 12.9396 3.25212 13.782 3.02008 14.6104C2.96663 14.8005 2.88159 14.9111 2.72548 14.9925C2.51167 15.1043 2.30818 15.2266 2.09194 15.3562C2.03484 15.3904 1.97653 15.4253 1.91822 15.4601L1.47784 14.6477C1.48938 14.6403 1.50092 14.6324 1.51246 14.625C1.59629 14.5694 1.67525 14.5175 1.75665 14.4679C2.15208 14.2258 2.19642 14.0718 1.99354 13.6439C1.95406 13.5613 1.91579 13.4782 1.87509 13.3889C1.86173 13.3596 1.84776 13.3302 1.83379 13.2997C1.85505 13.285 1.87691 13.2703 1.89817 13.2557C2.00873 13.1799 2.11259 13.1077 2.22132 13.0417C2.47705 12.8864 2.5469 12.6462 2.41752 12.3643C2.36528 12.2494 2.31061 12.1357 2.25473 12.0171C2.24015 11.9859 2.22497 11.9548 2.20978 11.923C2.24076 11.9022 2.27113 11.8814 2.3009 11.8612C2.40902 11.7879 2.51106 11.7182 2.61432 11.6515C2.76193 11.5574 2.85426 11.4382 2.88038 11.3074C2.90346 11.193 2.87491 11.0738 2.79837 10.9626C2.46976 10.4833 2.53111 9.9985 2.72366 9.41773C2.8002 9.18787 2.8579 8.95067 2.91378 8.72081C2.95752 8.54047 3.00307 8.35463 3.05653 8.17612C3.14886 7.86617 3.08204 7.62898 2.833 7.38261C1.97896 6.54081 1.75118 5.54678 2.15511 4.42927C2.54265 3.357 3.33898 2.753 4.52102 2.6344C4.59148 2.62707 4.66437 2.6289 4.7482 2.63073C4.69657 2.90094 4.65891 3.08067 4.39468 3.20172C3.93304 3.41385 3.68642 4.00562 3.83342 4.54909C3.96948 5.0565 4.47182 5.45142 5.00149 5.46792C5.53177 5.48504 6.03289 5.11457 6.19507 4.58822C6.35786 4.05942 6.17442 3.53367 5.71643 3.21578C5.68849 3.19683 5.66115 3.18093 5.63442 3.16626C5.53784 3.11185 5.52266 3.10329 5.54756 3.01587C5.56093 2.96697 5.60223 2.81902 5.62774 2.79946C5.6405 2.79641 5.68423 2.80068 5.83487 2.86915C6.98533 3.3894 7.65775 4.71476 7.37104 5.86101C7.02906 5.82372 6.72596 5.68189 6.38398 5.48198C6.22605 5.38845 5.96182 5.38295 5.80875 5.46976ZM5.04097 4.58271C4.94439 4.58516 4.85389 4.5497 4.78464 4.48184C4.71661 4.41521 4.67956 4.32718 4.67956 4.23242C4.67956 4.1395 4.71418 4.05452 4.77796 3.99217C4.84356 3.92737 4.93407 3.89252 5.03308 3.89252C5.03672 3.89252 5.04037 3.89252 5.04401 3.89252C5.23656 3.89802 5.38174 4.04535 5.38174 4.23609C5.38113 4.41888 5.22563 4.57782 5.04097 4.58271ZM8.70919 4.49101L8.7347 4.76245C8.7505 4.93484 8.7669 5.10785 8.78269 5.28024C8.79909 5.46303 8.81002 5.58407 8.78391 5.62503C8.75839 5.66599 8.64116 5.70695 8.47898 5.76319C8.42492 5.78215 8.36843 5.79804 8.30586 5.81516C8.42128 4.07348 7.69905 2.79457 6.15802 2.00779C6.71867 1.47532 7.34918 1.27541 8.08051 1.39523C8.8489 1.52178 9.41441 1.95644 9.76307 2.68942C8.89203 3.12897 8.62476 3.59603 8.70919 4.49101Z" fill="#37474F"/>
<path d="M14.5564 6.37512C14.4646 6.27853 14.3644 6.22901 14.2581 6.2284C14.0935 6.22718 13.9611 6.33967 13.8633 6.4387C13.6798 6.62455 13.4964 6.80917 13.3124 6.99379C13.0439 7.26339 12.7663 7.54215 12.496 7.81909C12.4377 7.87839 12.3958 7.94502 12.3478 8.02144C12.3253 8.05689 12.3016 8.0948 12.2731 8.13576L12.2202 8.21278L12.2803 8.28431C12.3028 8.31121 12.3253 8.34422 12.3472 8.37662C12.4091 8.46832 12.4735 8.56308 12.5816 8.58386C12.6132 8.58997 12.6478 8.59303 12.6849 8.59303C12.8155 8.59303 12.9686 8.55329 13.0627 8.46343C13.4041 8.13881 13.7406 7.7983 14.0656 7.46941C14.2047 7.3288 14.3438 7.18758 14.4841 7.04759C14.7848 6.7462 14.6894 6.51512 14.5564 6.37512Z" fill="#37474F"/>
<path d="M15.7539 8.13087C15.2722 8.58387 14.7735 9.08394 14.1849 9.70322C14.075 9.81937 14.0835 10.0431 14.1236 10.158C14.1582 10.2565 14.2451 10.3145 14.3222 10.3653C14.3483 10.3824 14.3726 10.3989 14.3915 10.4148L14.4492 10.4625L14.5172 10.4325C14.547 10.4197 14.5743 10.4093 14.5998 10.4007C14.6605 10.3793 14.7231 10.3567 14.7723 10.3078L14.9442 10.1373C15.4046 9.68182 15.8809 9.21048 16.3297 8.72753C16.4482 8.60037 16.419 8.27942 16.3109 8.16694C16.204 8.05201 15.8796 8.01288 15.7539 8.13087Z" fill="#37474F"/>
</svg>
