<svg width="135" height="91" viewBox="0 0 135 91" fill="none" xmlns="http://www.w3.org/2000/svg">
<path d="M101.045 56.0509C99.9393 52.9639 99.9393 49.73 101.93 46.937C103.33 44.9525 103.404 43.1886 102.741 40.9101C101.414 36.3532 102.593 32.1637 105.321 28.5623C106.353 27.2393 106.795 25.9163 106.869 24.1524C106.942 20.1834 107.974 16.5085 110.481 13.495C112.913 10.7021 116.673 10.4816 119.253 12.9071C119.622 13.2746 120.138 13.4215 120.506 13.7155C121.538 14.4505 122.718 15.0385 123.676 15.9205C126.92 19.0075 128.394 23.0499 128.615 27.6068C128.763 30.1058 128.615 32.6047 128.615 35.0302C130.753 37.1617 132.006 39.3666 130.827 42.3801C132.67 44.879 132.375 47.378 131.343 49.289C132.449 51.6409 133.628 53.5519 134.291 55.6834C135.176 58.4763 134.807 61.4898 134.07 64.2827C133.481 66.6347 132.154 68.1782 129.795 68.6192C128.836 68.8397 127.804 69.0602 127.067 69.2071C126.109 70.8241 124.856 72.0001 123.455 73.0291L121.243 72.2206C120.064 71.7061 119.106 71.2651 118 70.8241L115.862 71.0446L114.83 71.2651C114.314 71.4121 113.724 71.4856 112.987 71.7061C112.987 71.7061 112.029 71.9266 110.997 72.2206C110.186 71.7061 109.301 71.4121 108.417 71.0446C106.648 70.2361 104.583 69.8686 103.109 68.6927C99.497 65.6057 98.8335 61.0488 101.045 56.0509Z" fill="#A8A8A8"/>
<path d="M113.135 71.7796C114.24 72.6616 114.977 73.2496 115.936 74.0581V71.1181L118.074 70.8976C118.147 72.1471 118.147 73.1026 118.221 74.5726C119.474 73.6906 120.285 73.1026 121.317 72.3676L123.529 73.1761C121.759 74.5726 119.843 75.7485 118.295 77.586C118.295 78.027 118.295 78.762 118.295 79.497C118.295 81.6285 118.368 83.7599 118.295 85.8179H116.009C115.936 85.0094 116.009 84.1274 116.009 83.2454C115.788 76.998 115.641 76.4835 111.586 72.8086C111.439 72.6616 111.218 72.5146 111.07 72.4411C112.102 72.0001 113.135 71.7796 113.135 71.7796Z" fill="#37474F"/>
<path d="M2.43517 85.7082L117.95 85.7082L117.95 83.0622L2.43517 83.0622L2.43517 85.7082Z" fill="#B1B1B0"/>
<path d="M112.619 83.3189C112.692 82.9514 112.619 41.8656 112.619 41.8656L93.1573 4.89568L72.6639 42.3801V83.3189H112.619Z" fill="#DADADA"/>
<path d="M78.119 30.1793H106.942L105.247 25.9164H80.4042L78.119 30.1793Z" fill="#B1B1B0"/>
<path d="M89.9082 27.6383L91.9723 27.6383L91.9723 5.07414L89.9082 5.07414L89.9082 27.6383Z" fill="#B1B1B0"/>
<path d="M94.1725 27.6383L96.2366 27.6383L96.2366 5.07414L94.1725 5.07414L94.1725 27.6383Z" fill="#B1B1B0"/>
<path d="M85.5335 27.6383L87.5975 27.6383L87.5975 5.07414L85.5335 5.07414L85.5335 27.6383Z" fill="#B1B1B0"/>
<path d="M78.7825 29.4443H104.289L102.593 25.1079H80.994L78.7825 29.4443Z" fill="#F6F6F6"/>
<path d="M90.5669 26.865L92.631 26.865L92.631 4.30085L90.5669 4.30085L90.5669 26.865Z" fill="#F6F6F6"/>
<path d="M94.8313 26.865L96.8954 26.865L96.8954 4.30085L94.8313 4.30085L94.8313 26.865Z" fill="#F6F6F6"/>
<path d="M86.1924 26.865L88.2565 26.865L88.2565 4.30085L86.1924 4.30085L86.1924 26.865Z" fill="#F6F6F6"/>
<path d="M7.56969 83.3409L72.6619 83.3409L72.6619 42.9166L7.56969 42.9166L7.56969 83.3409Z" fill="#F6F6F6"/>
<path d="M72.5164 42.7475L95.6635 0.26519C95.6635 0.26519 22.1676 0.632684 21.799 0.26519C21.5042 -0.102304 0.0524902 42.8945 0.0524902 42.8945L72.5164 42.7475Z" fill="#37474F"/>
<path d="M82.5568 83.2859L104.008 83.2859L104.008 63.5147L82.5568 63.5147L82.5568 83.2859Z" fill="#E85451"/>
<path d="M104.067 63.5477H100.676V83.3189H104.067V63.5477Z" fill="#CE3838"/>
<path d="M94.1155 63.5477H92.4938V83.3189H94.1155V63.5477Z" fill="#CE3838"/>
<path d="M97.4125 58.563L104.489 58.563L104.489 38.4978L97.4125 38.4978L97.4125 58.563Z" fill="#E85451"/>
<path d="M97.4327 40.6896V38.5581H104.51V58.5498H102.372V40.6896H97.4327Z" fill="#CE3838"/>
<path d="M83.3935 58.563L90.4703 58.563L90.4703 38.4978L83.3935 38.4978L83.3935 58.563Z" fill="#E85451"/>
<path d="M83.3529 40.6896V38.5581H90.4297V58.5498H88.3657V40.6896H83.3529Z" fill="#CE3838"/>
<path d="M48.1161 54.1399H37.9431V70.9711H48.1161V54.1399Z" fill="#737D8E"/>
<path d="M48.1161 56.6388V54.1399H37.9431V70.9711H40.9655V56.6388H48.1161Z" fill="#B1B1B0"/>
<path d="M60.2057 54.1399H50.0327V70.9711H60.2057V54.1399Z" fill="#737D8E"/>
<path d="M60.2057 56.6388V54.1399H50.0327V70.9711H53.0551V56.6388H60.2057Z" fill="#B1B1B0"/>
<g style="mix-blend-mode:multiply">
<path d="M93.1573 4.89568L112.692 41.9391C112.692 41.9391 112.692 53.8459 112.692 61.1223L86.3016 17.3905L93.1573 4.89568Z" fill="#D2D8D8"/>
</g>
<path d="M95.6636 0.265259L120.433 44.732H112.618L91.6091 7.83564L95.6636 0.265259Z" fill="#26353A"/>
<g style="mix-blend-mode:multiply">
<path d="M72.5902 42.8211H7.49805V46.349H72.5902V42.8211Z" fill="#D2D8D8"/>
</g>
<path d="M21.7991 0.265264C22.0939 0.632758 95.6636 0.265264 95.6636 0.265264L93.6732 3.79321H19.8087C20.9882 1.58824 21.7254 0.191765 21.7991 0.265264Z" fill="#37474F"/>
<path d="M1.8217 39.3666C2.11657 39.7341 74.3593 39.3666 74.3593 39.3666L72.5164 42.7476L0.0524902 42.8946C1.23196 40.6161 1.8217 39.2931 1.8217 39.3666Z" fill="#37474F"/>
<path d="M95.9933 59.6618L105.945 59.6618L105.945 56.8688L95.9933 56.8688L95.9933 59.6618Z" fill="#F6F6F6"/>
<path d="M82.1938 59.6618L92.1456 59.6618L92.1456 56.8688L82.1938 56.8688L82.1938 59.6618Z" fill="#F6F6F6"/>
<path d="M28.8762 89.6398C27.9179 89.7868 27.107 89.7868 26.1487 89.6398C25.2641 89.4928 24.3795 89.2723 23.4949 89.0518C23.5686 88.2434 23.716 87.4349 23.8635 86.6999C23.8635 86.6264 23.9372 86.5529 24.0109 86.4794C24.0846 86.4059 24.232 86.4794 24.3058 86.4794C24.8218 86.6999 25.6327 86.5529 26.2224 86.5529H26.2961C26.3698 86.6264 26.5173 86.7734 26.591 86.8469C26.6647 86.9939 26.7384 87.0674 26.8121 87.1409C27.0333 87.3614 27.3282 87.5084 27.623 87.7289C28.0653 87.9494 28.5814 88.1699 29.0974 88.2433C29.6134 88.3168 30.1294 88.3169 30.6454 88.3169C30.7191 88.3169 30.7929 88.5373 30.7929 88.5373C30.8666 88.6108 30.8666 88.7578 30.9403 88.8313C30.3506 89.2723 29.6134 89.4928 28.8762 89.6398Z" fill="#131616"/>
<path d="M23.4947 89.4928C23.4947 89.3458 23.4947 89.1253 23.5685 88.9783C24.4531 89.2723 25.3377 89.4193 26.2223 89.5663C27.1806 89.7133 27.9915 89.7133 28.9498 89.5663C29.687 89.4193 30.4241 89.1988 31.0139 88.7578C31.0139 88.8313 31.0876 88.9783 31.0876 89.0518V89.1253C31.0876 89.1253 31.0876 89.1988 31.0139 89.1988C29.9818 90.0073 28.4338 90.3748 27.1806 90.2278C26.6646 90.1543 26.0011 90.0808 25.4851 89.9338C25.4851 90.0808 25.4851 90.1543 25.4114 90.3013C25.4114 90.3748 25.4114 90.3748 25.3377 90.3748C25.3377 90.3748 25.2639 90.3748 25.1902 90.3748C24.7479 90.3748 24.3056 90.2278 23.8633 90.0808C23.5685 90.0073 23.421 90.0073 23.4947 89.4928Z" fill="#3A2C32"/>
<path d="M27.5491 87.3614C27.1806 87.5819 26.812 87.9494 26.5908 88.2434" stroke="#3A2C32" stroke-width="1.4983" stroke-miterlimit="10" stroke-linecap="round" stroke-linejoin="round"/>
<path d="M26.9593 86.9939C26.5907 87.2144 26.3696 87.5084 26.1484 87.8759" stroke="#3A2C32" stroke-width="1.4983" stroke-miterlimit="10" stroke-linecap="round" stroke-linejoin="round"/>
<path d="M23.2735 81.0405C23.126 80.0115 23.0523 79.203 23.0523 79.056C22.6837 76.263 22.1677 73.4701 21.578 70.6771C21.0619 68.1047 20.5459 65.6057 19.4402 63.1802C19.1453 62.5188 18.9241 61.9308 18.703 61.2693C18.6293 61.0488 18.0395 59.2113 17.9658 59.2113C19.0716 59.2848 20.251 59.1378 21.3568 58.9173C22.1677 58.7703 22.9049 58.6233 23.7158 58.4763C24.0106 58.4028 24.3055 58.3293 24.4529 58.1088C25.2638 62.0043 25.8535 65.9732 26.0747 70.0891C26.2958 74.2786 26.517 78.3945 26.517 82.5839C26.517 83.6864 26.517 84.7889 26.4433 85.8914C26.4433 86.1119 26.4433 86.4059 26.4433 86.6264C26.4433 87.0674 24.0106 87.1409 23.8632 86.7734C23.9369 86.6999 23.5683 83.3189 23.2735 81.0405Z" fill="#223035"/>
<path d="M13.7641 90.0808C12.8058 89.9338 11.9949 89.5663 11.1103 89.1253C10.2994 88.6844 9.48851 88.1699 8.75134 87.5819C9.11993 86.8469 9.48851 86.1119 9.93082 85.4504C10.0045 85.3769 10.0045 85.3034 10.152 85.3034C10.2257 85.3034 10.3731 85.3769 10.4468 85.4504C10.8891 85.8914 11.7 85.9649 12.2898 86.1854C12.2898 86.1854 12.3635 86.1854 12.3635 86.2589L12.4372 86.3324C12.5846 86.6999 12.8058 87.0674 13.0269 87.3614C13.6904 88.1699 14.4276 88.8314 15.3122 89.2723C15.4596 89.3458 15.6807 89.4193 15.8282 89.4928C15.8282 89.4928 15.8282 89.4928 15.9019 89.4928C15.9019 89.5663 15.9756 89.6398 15.9756 89.7133C15.9756 89.7868 15.9756 89.9338 15.9756 90.0073C15.3122 90.3013 14.5013 90.2278 13.7641 90.0808Z" fill="#131616"/>
<path d="M8.53006 88.0964C8.60378 87.9494 8.6775 87.8024 8.75122 87.6554C9.48839 88.2434 10.2993 88.7579 11.1102 89.1989C11.9948 89.7133 12.8057 90.0073 13.764 90.1543C14.5011 90.3013 15.312 90.3013 16.0492 90.0808C16.0492 90.1543 16.0492 90.3013 16.0492 90.3748V90.4483C16.0492 90.4483 15.9755 90.4483 15.9755 90.5218C14.7223 90.9628 13.1005 90.7423 11.9211 90.0808C11.405 89.8603 10.8153 89.5663 10.4467 89.1989C10.373 89.2724 10.2993 89.4194 10.2993 89.4929L10.2256 89.5663C10.1518 89.5663 10.1518 89.5663 10.0781 89.5663C9.63582 89.3459 9.26724 89.1254 8.89865 88.8314C8.45635 88.6109 8.38263 88.4639 8.53006 88.0964Z" fill="#423F40"/>
<path d="M13.3217 87.4349C12.9531 87.5084 12.3633 87.6554 12.0685 87.9494" stroke="#423F40" stroke-width="1.50749" stroke-miterlimit="10" stroke-linecap="round" stroke-linejoin="round"/>
<path d="M12.8794 86.9939C12.5108 87.0674 12.0685 87.1409 11.7 87.4349" stroke="#423F40" stroke-width="1.50749" stroke-miterlimit="10" stroke-linecap="round" stroke-linejoin="round"/>
<path d="M11.0364 82.143C12.3633 78.5415 13.3954 74.7931 13.9114 70.9711C14.4274 67.1492 14.3537 63.2538 14.2063 59.4318C14.2063 59.6523 17.7447 59.8728 18.1133 59.8728C18.7767 59.8728 19.4402 59.8728 20.0299 59.7993C20.1774 59.7993 21.8728 59.4318 21.8728 59.2848C21.8728 60.7548 21.6517 62.2983 21.2831 63.7682C21.2094 64.2092 21.062 64.5767 20.8408 64.9442C20.6197 65.3117 20.2511 65.5322 19.8088 65.5322C19.8088 66.5612 19.6613 67.5902 19.3665 68.5457C19.1453 69.5747 18.8504 70.5301 18.4819 71.4856C17.8184 73.3966 17.0075 75.3076 16.1966 77.2185C15.0172 80.232 13.9851 83.3924 12.5845 86.2589C11.6262 86.2589 10.5941 85.8914 10.0044 85.1564C10.2993 84.1274 10.6678 83.1719 11.0364 82.143Z" fill="#37474F"/>
<path d="M24.969 48.1865C24.969 48.113 24.969 48.113 24.969 48.0395C24.969 47.8925 24.8953 47.819 24.8953 47.672C24.3793 46.496 23.8633 45.467 23.2735 44.3646C22.7575 43.4091 22.1678 42.3066 20.9883 42.1596C20.8409 42.1596 20.7672 42.1596 20.6197 42.1596C19.8088 42.3801 19.8826 43.7031 20.03 44.2911C20.1037 45.0261 20.3249 45.6875 20.6197 46.349C20.9883 47.378 21.4306 48.407 22.2415 49.142C22.3889 49.289 22.5364 49.436 22.6838 49.5095C23.1261 49.73 23.7158 49.5095 24.1581 49.2155C24.453 48.995 24.7479 48.701 24.969 48.3335C24.8953 48.3335 24.8953 48.26 24.969 48.1865Z" fill="#E85451"/>
<path d="M16.7865 43.3356C17.5237 43.4091 18.1871 43.3356 18.8506 43.0416C19.2929 42.8211 19.5878 42.3801 19.7352 41.8656C19.4403 41.7186 19.2192 41.5716 18.9243 41.4246C18.4083 41.2041 17.8185 40.9836 17.3025 40.9836C16.3442 41.0571 15.4596 41.6451 14.7961 42.2331C14.8699 42.3801 14.9436 42.4536 15.091 42.6006C15.4596 43.1151 16.1968 43.2621 16.7865 43.3356Z" fill="#E85451"/>
<path d="M22.5363 45.9815C22.1677 44.2911 21.1357 42.8211 19.7351 41.9391C19.6614 42.4536 19.2928 42.8946 18.8505 43.1151C18.187 43.4091 17.5236 43.4826 16.7864 43.4091C16.1966 43.3356 15.4595 43.1151 15.0172 42.6741C14.9435 42.6006 14.796 42.4536 14.7223 42.3066C14.5749 42.4536 14.5012 42.5271 14.3537 42.6741C13.764 43.2621 13.4691 44.0706 13.4691 44.9526L14.0589 59.3583C14.1326 59.3583 14.0589 59.5053 14.1326 59.5053C20.1037 60.6078 23.4209 59.1378 24.6004 58.5498C24.8953 58.4028 25.0427 58.2558 25.0427 58.2558L22.5363 45.9815Z" fill="#CE3838"/>
<path d="M17.7449 41.5716C18.2609 41.5716 18.7032 41.4246 19.1455 41.2776L18.8507 39.0727L15.3123 37.7497V39.5136C15.386 39.8811 15.5334 40.3221 15.7546 40.6896C16.1231 41.4246 16.8603 41.5716 17.7449 41.5716Z" fill="#FF935A"/>
<path d="M17.7447 41.5716C16.8601 41.5716 16.1967 41.4246 15.6806 40.6161C15.4595 40.2486 15.3858 39.8811 15.2383 39.4401C15.2383 39.9546 15.2383 40.3956 15.2383 40.9101C15.2383 41.2041 15.1646 41.4981 15.2383 41.7186C15.312 42.1596 15.7543 42.3801 16.1229 42.4536C16.8601 42.6741 17.5973 42.6006 18.3344 42.3801C18.8505 42.1596 19.2191 41.8656 19.1453 41.2776C18.703 41.4981 18.187 41.5716 17.7447 41.5716Z" fill="#FFA77A"/>
<path d="M17.8922 41.0571C17.6711 41.0571 17.3762 41.0571 17.1551 40.9836C16.3442 40.7631 15.8282 40.1751 15.5333 39.3666C15.1647 38.1907 14.9435 37.0147 15.091 35.7652C15.091 35.5447 15.1647 35.3242 15.3121 35.1037C15.4596 34.8832 15.607 34.7362 15.8282 34.5892C16.4916 34.2217 17.0813 34.3687 17.8185 34.5157C18.6294 34.7362 19.4403 34.5157 19.4403 34.5157C19.4403 34.5157 19.5877 36.5002 19.5877 36.7207C19.6614 37.6762 19.5877 38.5582 19.3666 39.4401C19.2929 39.8076 19.1454 40.3221 18.8506 40.6161C18.6294 40.9101 18.2608 40.9101 17.9659 40.9836C17.9659 41.0571 17.9659 41.0571 17.8922 41.0571Z" fill="#FFA77A"/>
<path d="M14.4274 33.1192C14.796 32.6048 15.828 32.4578 16.4915 32.4578C17.3024 32.3843 18.1133 32.3843 18.9242 32.3843C19.219 32.3843 19.5139 32.3843 19.8088 32.3843C19.9562 32.3843 20.0299 32.3843 20.1774 32.4578C20.3985 32.6047 20.3985 33.1192 20.3248 33.3397C20.2511 34.0012 19.7351 34.5892 19.0716 34.7362C18.5556 34.8097 17.9658 34.8832 17.3761 34.8832C17.2287 34.8832 15.9018 34.8832 15.828 34.8097C15.9018 35.3977 15.9755 35.9857 15.6806 36.5002C15.6069 36.5737 15.6069 36.6472 15.6069 36.7207C15.6069 36.7942 15.6069 36.8677 15.6069 37.0147C15.6806 37.3822 15.6806 37.7497 15.7543 38.1172C15.7543 38.2642 15.7543 38.4112 15.6069 38.4847C15.4595 38.5582 15.2383 38.4112 15.0909 38.3377C14.9434 38.3377 14.796 38.4112 14.6486 38.4847C13.6165 38.7787 13.4691 36.3532 13.3954 35.7652C13.3954 35.4712 13.3954 35.1037 13.4691 34.8097C13.6165 34.5157 13.9114 34.2952 14.2063 34.2952C14.1326 34.0012 14.1326 33.7807 14.2063 33.4867C14.28 33.3397 14.3537 33.1927 14.4274 33.1192Z" fill="#7F4A1D"/>
<path d="M15.3121 38.8521C15.3858 38.8521 15.3858 38.7786 15.3858 38.7051C15.3858 38.6317 15.3858 38.5582 15.3858 38.4847C15.312 38.1907 15.312 37.8967 15.1646 37.6027C15.0909 37.3822 15.0172 37.1617 14.796 37.0882C14.6486 37.0147 14.4274 37.0882 14.28 37.1617C14.2063 37.2352 14.2063 37.3087 14.1326 37.3087C13.9851 37.6762 14.2063 38.0437 14.4274 38.3377C14.5749 38.6317 14.9435 38.9256 15.3121 38.8521Z" fill="#FFA77A"/>
<path d="M16.7864 39.2196C16.8601 39.2196 16.9338 39.2196 17.0075 39.2931C17.3024 39.3666 17.5972 39.4401 17.8921 39.5136C17.9658 39.5136 18.0395 39.5136 18.187 39.5136C18.2607 39.5136 18.4081 39.5136 18.5556 39.5136C18.703 39.5871 18.703 39.8076 18.703 39.9546C18.6293 40.2486 18.2607 40.3956 18.0395 40.3956C17.7447 40.3956 17.4498 40.3956 17.1549 40.3221C17.0075 40.2486 16.7864 40.1751 16.6389 40.0281C16.4915 39.8811 16.3441 39.6606 16.4915 39.4401C16.5652 39.2931 16.6389 39.2196 16.7864 39.2196Z" fill="#FFA77A"/>
<path d="M14.4274 37.4557C14.5748 37.3087 14.8697 37.3087 14.9434 37.4557C14.9434 37.4557 14.9434 37.4557 14.9434 37.5292H14.8697C14.7222 37.4557 14.5748 37.4557 14.5011 37.5292C14.4274 37.6027 14.4274 37.6027 14.4274 37.6762C14.5011 37.8232 14.6485 37.8967 14.796 37.9702C14.796 37.9702 14.796 37.9702 14.7222 37.9702C14.6485 37.9702 14.5011 37.8967 14.4274 37.8232C14.5011 37.8967 14.5011 38.0437 14.5748 38.1172C14.6485 38.1907 14.7222 38.3377 14.8697 38.4112C14.8697 38.4112 14.8697 38.4112 14.8697 38.4847C14.8697 38.4847 14.8697 38.4847 14.796 38.4847C14.5011 38.3377 14.3537 38.1172 14.2062 37.8232C14.2062 37.7497 14.1325 37.6762 14.2062 37.6027C14.2799 37.6027 14.3537 37.5292 14.4274 37.4557Z" fill="#EC6843"/>
<path d="M36.0266 46.4225H23.937V49.289H36.0266V46.4225Z" fill="#E7903E"/>
<path d="M36.0266 49.289H23.937V59.3583H36.0266V49.289Z" fill="#D28237"/>
<path d="M23.9369 46.4225H17.5236V49.289H23.9369V46.4225Z" fill="#FFA046"/>
<path d="M23.9369 49.289H17.5236V59.3583H23.9369V49.289Z" fill="#EA923F"/>
<path opacity="0.31" d="M35.2157 54.6544H33.0779V58.0353H35.2157V54.6544Z" stroke="#9D5F34" stroke-width="0.726444" stroke-miterlimit="10"/>
<path d="M24.6741 55.2424C24.453 55.2424 24.2318 55.2424 24.0844 55.3159C23.7895 55.3894 23.4209 55.3159 23.1261 55.3159C23.7158 55.3159 24.3055 55.1689 24.8216 54.8014L24.8953 54.7279C24.8953 54.6544 24.8953 54.6544 24.8953 54.5809H24.8216C24.5267 54.5809 24.3055 54.6544 24.0844 54.7279C23.7895 54.8014 23.4947 54.8014 23.1261 54.8014C23.2735 54.8014 23.4947 54.6544 23.6421 54.5809C23.937 54.4339 24.2318 54.3604 24.453 54.1399C24.6741 53.9929 24.8953 53.6989 25.1164 53.4784L25.1902 53.4049C25.1902 53.3314 25.1164 53.2579 25.1164 53.2579C25.0427 53.2579 24.969 53.2579 24.969 53.2579C24.6741 53.3314 24.5267 53.6254 24.2318 53.7724C23.937 53.9194 23.5684 53.9929 23.1998 53.9929C23.4947 53.9929 23.8632 53.6989 24.0844 53.5519C24.3055 53.4049 24.6004 53.1844 24.7479 52.8904C24.7479 52.8904 24.8216 52.8169 24.8216 52.7434C24.8216 52.6699 24.8216 52.6699 24.8216 52.5964C24.7479 52.5229 24.6741 52.5229 24.6004 52.5964C24.5267 52.6699 24.453 52.7434 24.3793 52.7434C24.3055 52.8169 24.1581 52.8904 24.0107 52.9639C23.7895 53.1109 23.5684 53.1844 23.3472 53.2579C23.1261 53.3314 22.9786 53.4049 22.7575 53.3314C22.6101 53.3314 22.3889 53.2579 22.3889 53.0374C22.3889 52.9639 22.3889 52.9639 22.4626 52.8904C22.6101 52.6699 22.8312 52.5229 22.9786 52.2289C22.9786 52.1554 23.0524 52.1554 23.0524 52.0819C23.0524 51.7879 22.6101 52.0084 22.5363 52.0819C22.1678 52.3024 21.7992 52.6699 21.5043 53.0374C21.3569 53.2579 21.1357 53.4784 20.9883 53.6254C21.1357 54.2134 21.2094 54.8014 21.2094 55.3894C22.3152 55.3159 23.4209 55.8304 24.453 55.4629C24.6004 55.3894 24.6741 55.3894 24.8216 55.2424V55.1689C24.8216 55.3159 24.7479 55.2424 24.6741 55.2424Z" fill="#FFA77A"/>
<path d="M20.8409 53.7724C20.546 53.8459 20.2512 53.8459 19.9563 53.9194C20.1037 54.5074 20.2512 55.1689 20.3249 55.8304C20.546 55.7569 20.8409 55.6834 21.0621 55.6099C21.0621 54.9484 20.9883 54.4339 20.8409 53.7724Z" fill="white"/>
<path d="M16.639 54.5074C15.3858 54.5809 14.1326 54.5809 12.9532 54.5809C13.248 52.8169 13.7641 51.1264 14.2801 49.436C14.575 48.6275 14.7961 47.7455 15.091 46.937C15.3858 46.055 15.6807 45.2465 15.607 44.2911C15.607 44.1441 15.607 43.9971 15.5333 43.8501C15.3121 43.0416 14.2801 42.8211 13.6166 43.1886C13.1006 43.4826 12.732 43.9971 12.5109 44.5851C12.216 45.173 12.1423 45.8345 11.8474 46.4225C11.5526 47.0105 11.3314 47.7455 11.1102 48.407C10.6679 49.8035 10.2994 51.1999 9.85706 52.5964C9.70962 53.1109 9.63591 53.5519 9.48847 54.0664C9.41476 54.3604 9.34104 54.5809 9.34104 54.8014L9.26732 55.1689C9.26732 55.3159 9.1936 55.4629 9.1936 55.6099V55.7569C9.1936 55.9039 9.1936 56.0509 9.1936 56.2714C9.1936 56.4919 9.34104 56.6389 9.41475 56.8594C9.48847 57.0064 9.63591 57.1533 9.78334 57.2268C10.0045 57.4473 10.2256 57.5208 10.3731 57.5943C10.5205 57.6678 10.6679 57.6678 10.8154 57.7413C11.2577 57.8148 11.5526 57.8148 11.9211 57.8148C12.5109 57.8148 13.1006 57.7413 13.6166 57.5943C14.6487 57.3738 15.6807 57.1533 16.7127 56.9329C17.9659 56.5654 19.2191 56.1979 20.4723 55.8304C20.3986 55.1689 20.2512 54.5809 20.1037 53.9194C18.9243 54.1399 17.7448 54.3604 16.639 54.5074Z" fill="#E85451"/>
<path d="M35.2156 51.2735C35.2893 51.4939 35.5104 51.5674 35.7316 51.6409C35.8053 51.6409 35.879 51.7144 35.9527 51.7144C36.1739 51.7879 36.4688 51.7144 36.4688 51.4204C36.4688 51.3469 36.395 51.2 36.3213 51.2C36.2476 51.2 36.2476 51.2 36.1739 51.2C35.9527 51.2 35.7316 51.1264 35.5104 51.1264C35.4367 51.1264 35.363 51.1264 35.363 51.1264C35.2893 51.1264 35.2156 51.2 35.2156 51.2735Z" fill="#FFA77A"/>
<path d="M35.5105 51.7879C35.4368 51.7879 35.3631 51.7144 35.2894 51.7144C35.2157 51.7144 35.2157 51.7144 35.1419 51.7144C35.0682 51.7144 34.9945 51.7879 34.9945 51.8614C34.9945 51.9349 34.9945 52.0084 35.0682 52.0084C35.1419 52.1554 35.2894 52.2289 35.5105 52.3024C35.658 52.3759 35.8054 52.3759 35.9528 52.3759C36.174 52.3759 36.4688 52.3759 36.4688 52.1554C36.4688 52.0819 36.3951 52.0084 36.3214 52.0084C36.2477 52.0084 36.174 52.0084 36.1003 52.0084C36.0265 52.0084 35.9528 52.0084 35.8791 51.9349C35.7317 51.9349 35.5842 51.8614 35.5105 51.7879Z" fill="#FFA77A"/>
<path d="M35.3631 52.5964C35.2893 52.5964 35.2156 52.5229 35.0682 52.5229C34.9945 52.5229 34.9945 52.5229 34.9208 52.5229C34.847 52.5229 34.7733 52.5964 34.7733 52.6699C34.7733 52.7434 34.847 52.8169 34.847 52.8169C34.9945 52.9639 35.1419 53.0374 35.2893 53.0374C35.4368 53.0374 35.5842 53.1109 35.7316 53.1109C35.9528 53.1109 36.2477 53.0374 36.2477 52.8169C36.2477 52.7434 36.1002 52.6699 36.0265 52.6699C35.9528 52.6699 35.8791 52.6699 35.8054 52.6699C35.7316 52.6699 35.6579 52.6699 35.5842 52.6699C35.5842 52.5964 35.5105 52.5964 35.3631 52.5964Z" fill="#FFA77A"/>
<path d="M35.4367 53.2579C35.363 53.2579 35.2893 53.2579 35.2155 53.2579H35.1418C35.0681 53.2579 35.0681 53.3314 35.0681 53.4049C35.0681 53.4784 35.1418 53.5519 35.1418 53.5519C35.2893 53.6989 35.4367 53.6989 35.5841 53.7724C35.7316 53.7724 35.879 53.8459 35.9527 53.8459C36.1002 53.8459 36.395 53.7724 36.395 53.5519C36.395 53.4784 36.2476 53.4049 36.1739 53.4049C36.1002 53.4049 36.0264 53.4049 36.0264 53.4049C35.9527 53.4049 35.879 53.4049 35.8053 53.4049C35.6579 53.3314 35.5841 53.2579 35.4367 53.2579Z" fill="#FFA77A"/>
</svg>
