<svg width="28" height="28" viewBox="0 0 28 28" fill="none" xmlns="http://www.w3.org/2000/svg">
<path d="M23.333 12.6665C23.333 14.7761 22.7074 16.8384 21.5354 18.5925C20.3633 20.3466 18.6975 21.7138 16.7484 22.5211C14.7994 23.3284 12.6547 23.5396 10.5856 23.1281C8.51648 22.7165 6.61589 21.7006 5.12415 20.2089C3.63241 18.7171 2.61653 16.8165 2.20496 14.7474C1.79339 12.6783 2.00462 10.5337 2.81194 8.58461C3.61927 6.63556 4.98642 4.96968 6.74052 3.79763C8.49462 2.62558 10.5569 2 12.6665 2C14.0673 2 15.4543 2.2759 16.7484 2.81194C18.0425 3.34798 19.2184 4.13367 20.2089 5.12415C21.1994 6.11463 21.985 7.29049 22.5211 8.58461C23.0571 9.87873 23.333 11.2658 23.333 12.6665Z" stroke="white" stroke-width="3" stroke-linecap="round" stroke-linejoin="round"/>
<path d="M25.9998 26L20.2003 20.2005" stroke="white" stroke-width="3" stroke-linecap="round" stroke-linejoin="round"/>
</svg>
