<svg width="132" height="91" viewBox="0 0 132 91" fill="none" xmlns="http://www.w3.org/2000/svg">
<path d="M52.6391 31.8292C51.5558 30.0092 49.2538 28.324 46.4101 27.9195C41.6706 27.2455 43.2956 21.9877 39.1655 20.5721C34.8322 19.0891 34.426 22.5943 23.2544 16.3254C20.1399 14.5728 14.3171 14.0335 11.8119 17.3365C10.3224 19.2913 9.91612 22.1225 10.3901 24.4817C10.7963 26.7736 12.5567 30.0766 10.6609 32.0988C8.90052 34.0536 5.78601 33.447 3.61939 34.6603C1.45277 35.941 0.572581 38.4351 0.572581 40.8618C0.504874 46.4567 2.87461 52.4559 6.46307 56.7026C13.9108 65.6005 27.2491 67.6901 37.879 63.9153C44.1081 61.6234 48.983 57.0397 51.8944 51.1078C54.4672 45.4455 56.1599 37.4914 52.6391 31.8292Z" fill="#C8C8C8"/>
<path d="M36.051 20.1676C33.6812 20.3025 31.2438 20.7743 23.2544 16.258C20.1399 14.5054 14.3848 13.9661 11.8119 17.2691C10.3224 19.2239 9.91612 22.0551 10.3901 24.4143C10.7963 26.7062 12.5567 30.0092 10.6609 32.0314C8.90052 33.9862 5.78601 33.3796 3.61939 34.5929C1.45277 35.8736 0.572581 38.3677 0.572581 40.7944C0.504874 46.3893 2.87461 52.3885 6.46307 56.6352C6.80161 57.0397 7.14014 57.4441 7.54638 57.8486C20.8846 65.196 11.1348 43.0189 15.6712 39.0418C18.5149 36.4803 24.0668 40.1203 26.572 38.3003C27.8584 37.424 27.723 35.6714 26.7751 34.3233C23.7283 30.2114 18.9211 25.7625 21.2909 23.2684C22.5773 21.9202 25.1502 22.6617 29.9573 22.6617C35.4416 22.6617 38.2853 21.2462 36.051 20.1676Z" fill="#DADADA"/>
<path d="M30.025 90.4065H27.3168L27.1814 72.4087L24.27 46.5241L24.947 45.5804L28.8063 70.7909L31.5823 52.793L32.2594 53.5345L29.5511 73.959L30.025 90.4065Z" fill="#37474F"/>
<path d="M37.202 51.31L30.7698 60.7471V59.9382L36.7957 50.973L37.202 51.31Z" fill="#37474F"/>
<path d="M26.0303 58.6575L20.5461 51.31L20.8169 50.973L26.098 57.7812L26.0303 58.6575Z" fill="#37474F"/>
<path d="M27.3845 42.9515L25.7595 51.8493L25.421 50.973L26.9782 42.884L27.3845 42.9515Z" fill="#37474F"/>
<path fill-rule="evenodd" clip-rule="evenodd" d="M65.3003 36.6151H129.96V80.2279H65.3003V36.6151Z" fill="#B2B2B2"/>
<path fill-rule="evenodd" clip-rule="evenodd" d="M65.3003 36.6151H129.96L111.815 8.84315H47.1548L65.3003 36.6151Z" fill="#C6C6C6"/>
<path fill-rule="evenodd" clip-rule="evenodd" d="M61.3056 37.9633L47.1549 16.3254L33.0042 37.9633V80.2279H29.0095V36.6151L47.1549 8.84315L65.3003 36.6151V80.2279H61.3056V37.9633Z" fill="white"/>
<path fill-rule="evenodd" clip-rule="evenodd" d="M33.0042 37.9633H38.7592V80.228H33.0042V37.9633Z" fill="#D5D5D5"/>
<path fill-rule="evenodd" clip-rule="evenodd" d="M47.1549 16.3254L50.0663 20.7069L38.7592 37.9633H33.0042L47.1549 16.3254Z" fill="#A2A2A2"/>
<path fill-rule="evenodd" clip-rule="evenodd" d="M93.3309 80.2279H101.93V59.9382H93.3309V80.2279Z" fill="white"/>
<path fill-rule="evenodd" clip-rule="evenodd" d="M93.3309 80.2279H99.9662V59.9382H93.3309V80.2279Z" fill="#737D8E"/>
<path fill-rule="evenodd" clip-rule="evenodd" d="M93.3309 47.2655H99.9662V37.2892H93.3309V47.2655Z" fill="#737D8E"/>
<path fill-rule="evenodd" clip-rule="evenodd" d="M93.3309 36.6151L88.9977 30.0766H95.2944L99.9662 37.2892H93.3309V36.6151Z" fill="#9299A5"/>
<path fill-rule="evenodd" clip-rule="evenodd" d="M96.0392 51.5123H90.1487V55.7589H96.0392V51.5123Z" fill="white"/>
<path fill-rule="evenodd" clip-rule="evenodd" d="M110.935 55.7589V80.228H114.929V51.5123H96.0392V55.7589H110.935Z" fill="#D5D5D5"/>
<path fill-rule="evenodd" clip-rule="evenodd" d="M105.112 55.7589V80.2279H110.935V55.7589H105.112Z" fill="white"/>
<path fill-rule="evenodd" clip-rule="evenodd" d="M105.112 55.7589H90.1487L93.3309 60.5449V59.9382H101.93V64.0501H105.112V55.7589Z" fill="#575756"/>
<path fill-rule="evenodd" clip-rule="evenodd" d="M105.112 55.7589V64.0501H107.075L110.935 55.7589H105.112Z" fill="#989898"/>
<path fill-rule="evenodd" clip-rule="evenodd" d="M38.7592 37.9633V43.0189L33.0042 37.9633H38.7592Z" fill="#989898"/>
<path fill-rule="evenodd" clip-rule="evenodd" d="M93.331 36.6151L89.0654 30.0766H90.7581L95.4976 37.2892H93.331V36.6151Z" fill="#37474F"/>
<path fill-rule="evenodd" clip-rule="evenodd" d="M93.3309 47.2655H95.4975V37.2892H93.3309V47.2655Z" fill="#37474F"/>
<path fill-rule="evenodd" clip-rule="evenodd" d="M93.3309 80.2279H95.4975V68.2294H99.9662V59.9382H93.3309V80.2279Z" fill="#37474F"/>
<path fill-rule="evenodd" clip-rule="evenodd" d="M99.9662 68.2294L101.93 64.0501V59.9382H99.9662V68.2294Z" fill="#B2B2B2"/>
<path fill-rule="evenodd" clip-rule="evenodd" d="M65.9774 80.2279H131.518V83.6657H65.9774V80.2279Z" fill="#909090"/>
<path fill-rule="evenodd" clip-rule="evenodd" d="M28.1293 80.2279H65.9774V83.6657H28.1293V80.2279Z" fill="#C6C6C6"/>
<path fill-rule="evenodd" clip-rule="evenodd" d="M101.93 36.6151L95.2944 26.4366V30.0766L99.9661 37.2892V47.2655H101.93V36.6151Z" fill="white"/>
<path fill-rule="evenodd" clip-rule="evenodd" d="M89.0654 30.0766H95.2944V26.4366H86.6957L89.0654 30.0766Z" fill="#D5D5D5"/>
<path fill-rule="evenodd" clip-rule="evenodd" d="M89.0654 30.0766H90.7581L86.6957 26.4366L89.0654 30.0766Z" fill="#989898"/>
<path fill-rule="evenodd" clip-rule="evenodd" d="M29.6865 83.6658H65.9774V90.4739H29.6865V83.6658Z" fill="#656666"/>
<path fill-rule="evenodd" clip-rule="evenodd" d="M65.9774 83.6658H129.283V90.4739H65.9774V83.6658Z" fill="#434343"/>
<path fill-rule="evenodd" clip-rule="evenodd" d="M105.518 18.7521L110.122 8.91055H105.721V17.6736C105.721 17.741 105.721 17.8084 105.721 17.8758C105.654 18.1454 105.586 18.4825 105.518 18.7521Z" fill="#B2B2B2"/>
<path fill-rule="evenodd" clip-rule="evenodd" d="M61.3056 80.2279H38.7592V37.9633L50.0663 20.7069L61.3056 37.9633V80.2279Z" fill="#E85451"/>
<path fill-rule="evenodd" clip-rule="evenodd" d="M50.0663 20.7069L38.7592 37.9633V80.2279H61.3056H44.5143V48.1419L55.1443 31.8966L61.3056 41.2663V37.9633L50.0663 20.7069Z" fill="#CE3838"/>
<path d="M61.3056 58.9271H38.7592V59.8034H61.3056V58.9271Z" fill="white"/>
<path d="M44.1757 58.9271H38.4207V59.8034H44.1757V58.9271Z" fill="#B2B2B2"/>
<path d="M52.5037 24.4818V80.228H53.3839V25.8299L52.5037 24.4818Z" fill="white"/>
<path d="M52.5037 24.4818V34.9974L53.3839 33.5818V25.8299L52.5037 24.4818Z" fill="#B2B2B2"/>
<path d="M69.9044 36.6151H69.3627V80.2279H69.9044V36.6151Z" fill="#9D9D9C"/>
<path d="M74.5761 36.6151H74.0345V80.2279H74.5761V36.6151Z" fill="#9D9D9C"/>
<path d="M79.248 36.6151H78.7063V80.2279H79.248V36.6151Z" fill="#9D9D9C"/>
<path d="M83.9196 36.6151H83.378V80.2279H83.9196V36.6151Z" fill="#9D9D9C"/>
<path d="M88.5915 36.6151H88.0498V80.2279H88.5915V36.6151Z" fill="#9D9D9C"/>
<path d="M93.2632 36.6151H92.7216V51.5123H93.2632V36.6151Z" fill="#9D9D9C"/>
<path d="M93.2632 55.6915H92.7216V80.2279H93.2632V55.6915Z" fill="#9D9D9C"/>
<path d="M97.8673 47.2656H97.3256V51.5122H97.8673V47.2656Z" fill="#9D9D9C"/>
<path d="M97.8673 55.6915H97.3256V59.9382H97.8673V55.6915Z" fill="#9D9D9C"/>
<path d="M102.539 36.6151H101.997V51.5123H102.539V36.6151Z" fill="#9D9D9C"/>
<path d="M102.539 55.6915H101.997V80.2279H102.539V55.6915Z" fill="#9D9D9C"/>
<path d="M107.211 36.6151H106.669V51.5123H107.211V36.6151Z" fill="#9D9D9C"/>
<path d="M111.883 36.6151H111.341V51.5123H111.883V36.6151Z" fill="#9D9D9C"/>
<path d="M116.554 36.6151H116.013V80.2279H116.554V36.6151Z" fill="#9D9D9C"/>
<path d="M121.226 36.6151H120.685V80.2279H121.226V36.6151Z" fill="#9D9D9C"/>
<path d="M125.83 36.6151H125.289V80.2279H125.83V36.6151Z" fill="#9D9D9C"/>
<path fill-rule="evenodd" clip-rule="evenodd" d="M69.9721 36.6151C63.9462 27.3803 57.8526 18.078 51.8267 8.84315C51.5559 8.84315 51.5559 8.84315 51.285 8.84315C57.3109 18.078 63.4046 27.3803 69.4305 36.6151C69.3628 36.6151 69.7013 36.6151 69.9721 36.6151Z" fill="#B2B2B2"/>
<path fill-rule="evenodd" clip-rule="evenodd" d="M74.5762 36.6151C68.5503 27.3803 62.4567 18.078 56.4308 8.84315C56.1599 8.84315 56.1599 8.84315 55.8891 8.84315C61.915 18.078 68.0086 27.3803 74.0345 36.6151C74.0345 36.6151 74.3731 36.6151 74.5762 36.6151Z" fill="#B2B2B2"/>
<path fill-rule="evenodd" clip-rule="evenodd" d="M79.248 36.6151C73.2221 27.3803 67.1285 18.078 61.1026 8.84315C60.8317 8.84315 60.8317 8.84315 60.5609 8.84315C66.5868 18.078 72.6804 27.3803 78.7064 36.6151C78.7064 36.6151 78.9772 36.6151 79.248 36.6151Z" fill="#B2B2B2"/>
<path fill-rule="evenodd" clip-rule="evenodd" d="M83.9198 36.6151C77.8938 27.3803 71.8002 18.078 65.7743 8.84315C65.5035 8.84315 65.5035 8.84315 65.2327 8.84315C71.2586 18.078 77.3522 27.3803 83.3781 36.6151C83.3781 36.6151 83.6489 36.6151 83.9198 36.6151Z" fill="#B2B2B2"/>
<path fill-rule="evenodd" clip-rule="evenodd" d="M88.5915 36.6151C82.5656 27.3803 76.472 18.078 70.4461 8.84315C70.1752 8.84315 70.1752 8.84315 69.9044 8.84315C75.9303 18.078 82.0239 27.3803 88.0499 36.6151C88.0499 36.6151 88.3207 36.6151 88.5915 36.6151Z" fill="#B2B2B2"/>
<path fill-rule="evenodd" clip-rule="evenodd" d="M93.2633 36.6151C87.2374 27.3803 81.1437 18.078 75.1178 8.84315C74.847 8.84315 74.847 8.84315 74.5762 8.84315C80.6021 18.078 86.6957 27.3803 92.7216 36.6151C92.7216 36.6151 92.9924 36.6151 93.2633 36.6151Z" fill="#B2B2B2"/>
<path fill-rule="evenodd" clip-rule="evenodd" d="M102.539 36.6151C96.5132 27.3803 90.4196 18.078 84.3937 8.84315C84.1229 8.84315 84.1229 8.84315 83.8521 8.84315C89.878 18.078 95.9716 27.3803 101.997 36.6151C101.997 36.6151 102.336 36.6151 102.539 36.6151Z" fill="#B2B2B2"/>
<path fill-rule="evenodd" clip-rule="evenodd" d="M107.211 36.6151C101.185 27.3803 95.0914 18.078 89.0655 8.84315C88.7946 8.84315 88.7946 8.84315 88.5238 8.84315C94.5497 18.078 100.643 27.3803 106.669 36.6151C106.669 36.6151 106.94 36.6151 107.211 36.6151Z" fill="#B2B2B2"/>
<path fill-rule="evenodd" clip-rule="evenodd" d="M111.883 36.6151C105.857 27.3803 99.7631 18.078 93.7372 8.84315C93.4664 8.84315 93.4664 8.84315 93.1956 8.84315C99.2215 18.078 105.315 27.3803 111.341 36.6151C111.341 36.6151 111.612 36.6151 111.883 36.6151Z" fill="#B2B2B2"/>
<path fill-rule="evenodd" clip-rule="evenodd" d="M116.554 36.6151C110.529 27.3803 104.435 18.078 98.409 8.84315C98.1382 8.84315 98.1382 8.84315 97.8674 8.84315C103.893 18.078 109.987 27.3803 116.013 36.6151C116.013 36.6151 116.284 36.6151 116.554 36.6151Z" fill="#B2B2B2"/>
<path fill-rule="evenodd" clip-rule="evenodd" d="M121.226 36.6151C115.2 27.3803 109.107 18.078 103.081 8.84315C102.81 8.84315 102.81 8.84315 102.539 8.84315C108.565 18.078 114.659 27.3803 120.685 36.6151C120.685 36.6151 120.955 36.6151 121.226 36.6151Z" fill="#B2B2B2"/>
<path fill-rule="evenodd" clip-rule="evenodd" d="M125.898 36.6151C119.872 27.3803 113.778 18.078 107.753 8.84315C107.482 8.84315 107.482 8.84315 107.211 8.84315C113.237 18.078 119.33 27.3803 125.356 36.6151C125.289 36.6151 125.627 36.6151 125.898 36.6151Z" fill="#B2B2B2"/>
<path fill-rule="evenodd" clip-rule="evenodd" d="M91.2321 26.4366C87.3728 20.5721 83.5812 14.7076 79.7219 8.84315C79.4511 8.84315 79.4511 8.84315 79.1802 8.84315C83.0395 14.7076 86.8311 20.5721 90.6904 26.4366H91.2321Z" fill="#B2B2B2"/>
<path fill-rule="evenodd" clip-rule="evenodd" d="M105.721 17.6062C105.721 17.6736 105.721 17.741 105.721 17.8084C105.721 18.415 105.45 19.0217 104.976 19.3588C104.029 20.1676 102.471 19.7632 101.591 18.4825C101.185 17.8758 100.914 17.2017 100.914 16.595C100.914 16.5276 100.914 16.4602 100.914 16.3928V0.551994H105.721V17.6062Z" fill="#F0F0F0"/>
<path fill-rule="evenodd" clip-rule="evenodd" d="M105.721 17.6062C105.721 17.6736 105.721 17.741 105.721 17.8084C105.721 18.415 105.45 19.0217 104.977 19.3588C104.841 19.4936 104.706 19.561 104.503 19.6284V0.551994H105.654V17.6062H105.721Z" fill="#CBCBCB"/>
<path fill-rule="evenodd" clip-rule="evenodd" d="M93.2632 55.6916V60.4101L92.7216 59.6012V55.6916H93.2632Z" fill="#3C3C3B"/>
<path d="M97.8673 55.6915H97.3256V59.9382H97.8673V55.6915Z" fill="#3C3C3B"/>
<path d="M102.539 55.6915H101.997V64.0501H102.539V55.6915Z" fill="#3C3C3B"/>
<path fill-rule="evenodd" clip-rule="evenodd" d="M107.143 15.1121L106.94 15.5839C106.534 14.9773 106.128 14.3032 105.721 13.6965V12.8202C106.195 13.6291 106.669 14.3706 107.143 15.1121Z" fill="#9D9D9C"/>
<path fill-rule="evenodd" clip-rule="evenodd" d="M109.107 11.0002L108.904 11.472C108.362 10.5957 107.753 9.71945 107.211 8.84315H107.753L109.107 11.0002Z" fill="#9D9D9C"/>
<path d="M32.124 52.456C32.4625 52.3886 34.0197 52.1863 34.4937 51.7819C34.5614 51.7145 34.6291 51.6471 34.6291 51.5797C34.6291 51.5123 34.2229 51.5123 33.952 51.5797C34.7645 51.4448 34.8322 51.3774 34.8999 51.2426C34.9676 50.973 33.5458 51.2426 33.3427 51.2426C33.6135 51.1752 34.9676 51.0404 34.9676 50.9056C35.0353 50.4337 33.6135 50.7708 33.0718 50.7708C33.0718 50.7708 33.0719 50.7708 33.0041 50.7708C32.9364 50.7708 32.9364 50.7708 32.9364 50.7708H33.0041C33.4104 50.7034 34.2229 50.7708 34.2229 50.5685C34.0875 50.2315 33.3427 50.2989 32.6656 50.3663H32.5979C32.1917 50.4337 31.8531 50.5011 31.7177 50.5011C31.7854 50.4337 31.9208 50.2315 32.0562 50.0293C32.1917 49.8271 32.2594 49.6248 32.0562 49.5574C31.8531 49.49 31.3792 50.0967 31.0406 50.2989C30.5667 50.5011 30.7021 50.973 30.4313 51.3774C30.3636 51.5123 30.1605 51.7145 29.9573 51.9167C30.1605 52.1863 30.4313 52.456 30.6344 52.793C31.1084 52.5908 31.5823 52.5234 32.124 52.456ZM34.0875 51.7145C34.1552 51.7145 34.1552 51.7145 34.2229 51.6471C34.0875 51.7145 34.0875 51.7145 34.0875 51.7145Z" fill="#FFA471"/>
<path d="M33.3427 51.4448C33.2073 51.1078 33.0042 50.8382 32.8687 50.5011C32.801 50.4337 32.801 50.3663 32.7333 50.3663H32.6656C32.2594 50.4337 31.9208 50.5011 31.7854 50.5011C31.8531 50.4337 31.65 50.5685 31.65 50.6359C31.65 51.0404 31.5146 51.5797 31.2438 51.8493C31.5146 51.7819 31.7854 51.1752 31.7854 51.0404C31.8531 50.9056 31.7854 50.8382 31.9208 50.7708C32.0563 50.7034 32.4625 50.6359 32.5979 50.7034C32.7333 50.7708 33.3427 51.5797 33.6135 51.9167L33.3427 51.4448Z" fill="#E07F4F"/>
<path d="M21.6971 90.0021C21.6971 90.0021 21.6971 89.5302 21.6971 89.4628C21.6971 89.3954 21.6971 89.2606 21.7649 89.1932C21.8326 88.9235 21.8326 87.5754 21.8326 87.3057L22.8482 87.4406C22.9159 86.6991 22.7805 88.7887 22.8482 89.1258C22.8482 89.2606 22.9159 89.3954 22.9159 89.4628C22.9159 89.4628 22.9159 89.4628 22.8482 89.4628C22.645 89.4628 21.6971 90.0021 21.6971 90.0021Z" fill="#FFA471"/>
<path d="M24.6085 90.9458C23.2544 91.0806 21.4263 90.8784 21.4263 90.8784V90.8109C21.4263 90.8109 21.4263 90.811 21.4263 90.7435C21.4263 90.7435 21.4263 89.5302 21.6294 89.2606C22.2388 89.7324 22.5096 88.3843 22.645 88.7213C22.9158 89.665 25.0147 90.3391 25.0824 90.5413C25.1501 90.6761 25.421 90.9458 24.6085 90.9458Z" fill="#131616"/>
<path d="M17.3638 90.1369C17.3638 90.1369 17.3638 87.7102 17.3638 87.3057L16.4159 87.6428C16.4159 87.845 16.4159 88.3169 16.3482 88.8561C16.3482 89.0583 16.2805 89.328 16.2805 89.5302C16.2805 89.5302 16.2805 89.5302 16.3482 89.5302C16.3482 89.4628 17.3638 90.1369 17.3638 90.1369Z" fill="#FFA471"/>
<path d="M17.4993 90.8784V90.9458C17.4993 90.9458 14.9264 91.148 14.8587 90.7435C14.8587 90.6087 14.9941 90.4739 15.0618 90.3391C15.1295 90.2043 15.2649 90.1369 15.4004 90.0695L15.4681 90.0021C16.2128 89.1258 15.8066 88.6539 16.3483 88.6539C16.8899 88.6539 16.8899 89.2606 17.2284 89.328C17.4993 89.4628 17.4993 90.811 17.4993 90.8784C17.4993 90.811 17.4993 90.811 17.4993 90.8784Z" fill="#131616"/>
<path d="M18.5148 62.3649C18.3794 63.8479 17.7701 86.8339 17.7701 87.9124H15.6712C15.6035 87.2384 15.5357 86.5643 15.468 85.9576C15.2649 84.4072 15.0618 82.9243 14.9264 81.3739C14.3847 75.5094 13.8431 62.4997 13.9108 61.8931L15.4003 62.0279L18.5148 62.3649Z" fill="#37474F"/>
<path d="M24.7438 77.1946C24.7438 77.1946 23.9314 85.2161 23.4574 87.508C23.3897 87.7102 23.3897 87.845 23.322 87.9798L21.3585 87.845C20.7491 80.6324 21.4939 77.5316 21.4939 77.5316C21.4939 77.5316 19.8012 71.5998 18.3117 67.0834C18.0409 66.2745 17.8378 65.5331 17.5669 64.9264C17.2961 64.1849 17.2284 62.7693 17.0253 62.3649L21.4262 61.893C23.1866 66.5442 24.7438 77.1946 24.7438 77.1946Z" fill="#37474F"/>
<path d="M16.2805 87.9124H15.6712C15.6035 87.2384 15.5357 86.5643 15.468 85.9576C15.2649 84.4072 15.0618 82.9243 14.9264 81.3739C14.3847 75.5094 13.8431 62.4997 13.9108 61.8931L15.4003 62.0279C15.1972 65.6679 15.2649 69.3753 15.2649 73.0827C15.2649 77.6665 15.5357 82.2502 16.0774 86.6991C16.0774 87.1035 16.1451 87.508 16.2805 87.9124Z" fill="#223035"/>
<path d="M23.4574 87.508C23.3897 87.7102 23.3897 87.845 23.322 87.9798L21.3585 87.845C20.7492 80.6324 21.4939 77.5316 21.4939 77.5316C21.4939 77.5316 19.8013 71.5998 18.3117 67.0834C18.4471 66.4094 18.5148 65.8027 19.0565 65.0612C19.1242 65.8027 19.5304 67.2857 19.6658 67.8249C19.9367 68.9034 20.2752 69.982 20.6814 71.0605C21.3585 72.9479 21.9679 75.105 22.2387 76.9924C22.3741 77.8687 22.171 79.0146 22.171 80.0257C22.171 81.1042 22.1033 82.1828 22.1033 83.2613C22.1033 84.2724 22.1033 85.3509 22.5095 86.2946C22.7804 86.6991 23.1866 87.1035 23.4574 87.508Z" fill="#223035"/>
<path d="M23.0512 47.4004C22.7804 46.7937 21.2231 46.187 20.7492 45.85L15.4003 45.1759C15.1972 45.513 14.2493 45.9174 13.8431 46.1196C13.3691 46.3893 12.8952 46.7263 12.3535 46.9285C12.3535 47.333 12.7598 49.9619 12.9629 51.7145C13.0306 52.3886 13.8431 59.8034 13.8431 62.0279C15.6712 62.7694 18.9888 63.039 21.5616 62.2301C22.3064 58.5901 22.5772 54.8826 22.8481 51.1752C22.9158 50.3663 22.9835 49.5574 23.0512 48.6811C23.1189 48.3441 23.1866 47.7374 23.0512 47.4004Z" fill="#EDF4F4"/>
<path d="M19.5982 47.4678C19.4628 47.9396 19.2596 48.1419 18.9888 48.4115C18.6503 48.3441 18.3117 48.007 17.9732 47.6026C18.3117 47.4678 18.6503 47.4004 18.8534 47.333C18.8534 47.333 19.1919 47.4004 19.5982 47.4678Z" fill="#E85451"/>
<path d="M20.1398 45.6478C20.0044 46.187 19.8013 46.8611 19.5982 47.4678C19.1919 47.4004 18.7857 47.333 18.7857 47.333C18.5826 47.333 18.244 47.4678 17.9055 47.6026C17.567 47.2656 17.1607 46.9285 16.8899 46.7263C16.416 46.3893 15.8743 45.7152 15.5358 45.3107C15.7389 45.2433 15.8743 45.0411 16.0097 44.7715C16.2805 44.2996 16.416 43.6255 16.5514 42.8841C16.6868 41.8055 16.6191 40.727 16.416 40.1877L19.5982 43.5581C19.3951 44.1648 19.1919 44.9737 19.5982 45.3107C19.5982 45.3107 19.5982 45.3107 19.6659 45.3107C19.869 45.3781 19.869 45.7152 20.1398 45.6478Z" fill="#FFA471"/>
<path d="M19.7337 45.3107C19.6659 45.3107 19.5982 45.3107 19.5305 45.3107C18.3795 45.3107 17.6347 44.6367 17.0254 43.693C16.8223 43.4233 16.6868 43.0863 16.5514 42.8167C16.6868 41.7381 16.6191 40.6596 16.416 40.1203L19.5982 43.4907C19.4628 44.1648 19.192 45.0411 19.7337 45.3107Z" fill="#E07F4F"/>
<path d="M19.192 48.0744L18.7857 47.9396C18.5149 48.4789 18.3118 60.2078 18.5826 60.5449C18.7857 60.8145 19.0565 61.6908 19.3274 61.893C19.5305 61.556 19.9367 60.8819 20.1399 60.5449C20.2753 60.073 19.5305 50.0293 19.192 48.0744Z" fill="#E85451"/>
<path d="M15.9419 38.3677C16.2128 37.4914 17.0929 36.4803 17.9731 36.1433C18.5148 35.9411 18.9887 36.0085 19.4627 36.2781C19.8012 36.4803 20.3429 36.6825 20.6137 37.0196L20.9522 37.6937C21.697 38.3003 21.2908 40.39 21.3585 41.2663C21.4262 42.2774 20.8845 44.1648 20.4106 44.5693C20.0721 44.9063 19.5304 44.9737 18.8533 44.8389C17.5669 44.5018 16.9575 43.2885 16.619 42.7492C16.0096 41.6033 15.6034 39.4463 15.9419 38.3677Z" fill="#FFA471"/>
<path d="M15.5357 40.6596C15.6712 40.9966 15.8066 41.3337 16.0097 41.6033C16.2128 41.8729 16.0097 41.4011 16.3482 41.4011C16.1451 40.727 16.2805 40.7944 16.7545 40.1203C16.9576 39.7833 17.0253 39.5811 16.8899 39.1766C16.8222 38.907 16.7545 38.7048 16.8899 38.4352C17.2284 37.8285 18.3794 38.0981 18.9888 38.2329C19.6659 38.3677 20.0044 38.2329 20.6815 37.6937C21.2231 37.2892 21.4262 38.8396 21.4262 39.4463C21.7648 38.5026 21.7648 37.3566 21.2908 36.6826C21.2908 36.6151 21.2231 36.6151 21.2231 36.5477C20.9523 36.2107 20.4106 35.8063 20.0044 35.6714C19.7336 35.5366 17.7024 35.1322 16.4159 36.0085C15.6712 36.5477 15.3326 37.0196 15.1972 37.7611C15.1972 38.0307 15.1295 38.3003 15.1972 38.6374C15.1295 39.3115 15.2649 40.0529 15.5357 40.6596Z" fill="#3C3C3B"/>
<path d="M15.5357 40.6596C15.6711 40.9966 15.8065 41.3337 16.0097 41.6033C16.2128 41.873 16.4836 41.3337 16.8221 41.3337C16.619 40.6596 16.619 40.4574 16.7544 40.1878C16.9576 39.8507 17.0253 39.6485 16.8899 39.244C16.8221 38.9744 16.7544 38.7722 16.8899 38.5026C17.2284 37.8959 18.3794 38.1655 18.9888 38.3003C19.6658 38.4352 20.0044 38.3003 20.6814 37.7611C21.2231 37.3566 21.4262 38.907 21.4262 39.5137C21.7647 38.57 21.7647 37.424 21.2908 36.75C21.2908 36.8848 21.2908 36.9522 21.2908 37.087C20.8169 36.9522 20.6137 36.9522 20.1398 37.1544C19.6658 37.3566 19.3273 37.5589 18.7179 37.424C18.244 37.3566 17.8377 37.087 17.3638 37.2218C16.9576 37.3566 16.619 37.6937 16.3482 38.0307C16.2805 37.8959 16.2805 37.6937 16.2128 37.5589C16.0097 37.6937 15.6711 38.1655 15.468 38.0981C15.3326 38.0981 15.1972 37.9633 15.0618 37.8285C15.0618 38.0981 14.9941 38.3677 15.0618 38.7048C15.1295 39.3115 15.2649 40.0529 15.5357 40.6596Z" fill="#1D1D1B"/>
<path d="M15.6712 40.3226C16.0774 40.39 16.3483 40.8618 16.4837 41.0641L16.6191 41.6707C16.6191 42.0078 16.6191 42.6818 16.0774 42.4122C15.6035 42.21 15.4004 41.6707 15.2649 41.2663C15.1972 40.8618 15.0618 40.1878 15.6712 40.3226Z" fill="#FFA471"/>
<path d="M15.468 40.9292C15.4002 40.727 15.6034 40.4574 15.8742 40.5248C16.0773 40.5922 16.2127 40.8618 16.2804 41.0641C15.6711 40.8618 16.2804 42.0752 16.4159 41.8055L16.4836 41.8729C16.0773 42.2774 15.3325 41.1315 16.0773 40.9292C15.8742 40.727 15.6034 40.6596 15.468 40.9292Z" fill="#E07F4F"/>
<path d="M30.9729 52.8604C30.1604 54.2086 27.8584 57.7812 27.0459 58.0508C26.1657 57.8486 24.8793 56.7701 24.1345 55.8263C23.5929 55.1523 23.0512 54.2086 22.5773 53.4671C22.4419 53.1974 22.2387 52.9952 22.1033 52.793L22.7127 47.6026C22.7804 47.6026 22.7804 46.9285 23.5252 47.1982C24.3377 48.3441 24.7439 50.0293 25.1501 51.31C25.5564 52.5234 25.9626 53.9389 26.7751 54.8826C27.5876 53.6693 28.7386 52.8604 30.0927 51.6471C30.2959 52.0515 30.6344 52.456 30.9729 52.8604C30.9052 52.8604 30.9052 52.8604 30.9729 52.8604Z" fill="#37474F"/>
<path d="M30.973 52.8604C30.1605 54.2086 27.8585 57.7812 27.046 58.0508C26.1658 57.8486 24.8794 56.7701 24.1346 55.8263C23.5929 55.1523 23.0513 54.2086 22.5773 53.4671L23.119 50.5685C23.2544 52.0515 24.2023 53.5345 24.9471 54.8152C25.421 55.6915 26.0981 57.1071 27.1137 57.6464C28.3324 56.0286 29.7543 54.5456 30.973 52.8604C30.9053 52.8604 30.9053 52.8604 30.973 52.8604Z" fill="#223035"/>
<path d="M18.9211 47.333H18.8534C18.6503 47.333 18.3118 47.4678 17.9732 47.6026C17.2284 47.8722 16.3483 48.2093 16.0774 48.2093C16.0097 47.333 15.2649 46.3219 15.0618 45.513L16.2806 44.2996C16.2806 44.367 18.3795 46.8611 18.9211 47.333C18.8534 47.333 18.9211 47.333 18.9211 47.333Z" fill="white"/>
<path d="M18.9888 58.5227C18.9211 59.2641 18.5149 64.0501 18.244 64.7916C17.3639 64.859 16.5514 64.7242 15.6712 64.6568C15.1295 64.5893 14.5202 64.5219 13.9108 64.3871C13.5723 64.3197 13.166 64.2523 12.8952 64.1175C12.8952 63.6456 13.3692 58.5227 13.3014 57.3767C13.3014 56.9723 13.166 55.7589 13.0306 54.3434C12.7598 51.4448 12.4213 47.5352 12.2181 46.9959C12.6921 46.5241 13.7077 46.3219 14.1816 45.9174L16.5514 46.9959C16.8222 47.4678 19.1242 57.0397 18.9888 58.5227Z" fill="#37474F"/>
<path d="M20.8846 47.8048C20.6815 47.67 20.0721 47.5352 19.5982 47.4678C19.1919 47.4004 18.7857 47.333 18.7857 47.333V47.2656C19.0565 46.7263 19.6659 45.85 19.5305 45.1759C19.5305 45.1759 20.2075 45.6478 20.6138 45.7826C20.8169 46.4567 20.8846 47.1308 20.8846 47.8048Z" fill="white"/>
<path d="M23.6606 47.5352C23.4575 46.7263 21.2909 46.1196 20.6138 45.9174C20.4784 45.85 20.4107 45.85 20.343 45.85L19.6659 57.6463C19.6659 59.9382 19.869 62.3649 20.343 64.5893C20.6815 64.5219 22.7127 64.0501 22.8481 63.8479C22.9835 63.6456 22.171 55.2871 23.5929 48.5463C23.5929 48.2093 23.7283 47.8048 23.6606 47.5352Z" fill="#37474F"/>
<path d="M15.942 44.6367L13.7076 46.187C14.0462 46.5241 14.8587 46.3892 15.4003 46.5241C15.3326 47.1307 14.8587 47.4678 14.6555 48.0744C16.7544 47.8722 18.6502 55.8937 18.9888 58.7249C19.1919 52.1189 16.2128 44.7041 15.942 44.6367Z" fill="#223035"/>
<path d="M19.8013 45.3781L21.7648 46.3893C21.5617 46.7937 21.0877 46.9285 20.6815 47.1307C20.8846 47.7374 21.2909 47.9396 21.6294 48.4789C19.8013 48.6137 19.869 55.1523 19.7336 58.6575C18.718 52.1189 19.5982 45.513 19.8013 45.3781Z" fill="#223035"/>
<path d="M14.0462 63.376C13.9785 63.713 13.9785 64.1175 13.9108 64.4545C13.5722 64.3871 13.166 64.3197 12.8952 64.1849C12.8952 63.713 13.3691 58.5901 13.3014 57.4441C13.3014 57.0397 13.166 55.8263 13.0306 54.4108C13.0306 54.1411 13.0306 53.8715 13.0306 53.6019C13.0306 52.9278 12.9629 52.2537 12.9629 51.5797C12.9629 50.973 12.7598 50.0967 12.8952 49.5574H12.9629C13.4368 50.1641 13.7077 51.5797 13.8431 52.3885C14.1139 53.7367 14.317 55.1523 14.3847 56.5004C14.4524 58.7249 14.317 61.0841 14.0462 63.376Z" fill="#223035"/>
<path d="M11.8119 69.1057C11.7442 68.7012 11.1348 68.3642 10.9994 67.9597L10.6609 68.9708C10.7963 69.1731 11.0671 69.2405 11.2703 69.3079C11.338 69.4427 11.4057 70.0494 11.6765 69.9146C11.8119 69.8472 11.8119 69.2405 11.8119 69.1057Z" fill="#FFA471"/>
<path d="M11.4057 71.7346C11.3379 71.6672 11.4057 71.5324 11.4057 71.4649C11.4057 71.3301 11.4057 71.2627 11.4057 71.1279C11.4057 70.8583 11.4057 70.5212 11.3379 70.2516V70.1842C11.3379 70.1842 11.3379 70.1842 11.3379 70.1168C11.3379 70.0494 11.2702 70.0494 11.2702 69.982C11.2025 69.9146 11.3379 70.0494 11.2702 69.982L11.2025 69.9146C11.2025 69.9146 11.1348 69.8472 11.2025 69.9146C11.2025 69.9146 11.1348 69.9146 11.1348 69.8472H11.0671C11.0671 69.8472 11.0671 69.8472 10.9994 69.8472C10.9317 69.8472 10.9317 69.8472 10.864 69.7798H10.7963C10.864 69.7798 10.7963 69.7798 10.7286 69.7798C10.6609 69.7798 10.5932 69.7798 10.5255 69.7798C10.3901 69.7798 10.2546 69.6449 10.2546 69.5101C10.2546 69.3753 10.3901 69.2405 10.5255 69.2405C10.7963 69.2405 11.0671 69.3079 11.3379 69.3753C11.6088 69.5101 11.7442 69.7123 11.8796 69.982C12.015 70.319 12.015 70.6561 12.015 70.9931C12.015 71.1279 12.015 71.2627 12.015 71.3975C12.015 71.4649 12.015 71.5324 12.015 71.5998V71.6672C12.015 71.7346 12.015 71.5998 12.015 71.6672C12.0827 71.802 11.9473 72.0042 11.8119 72.0042C11.6088 71.9368 11.4734 71.8694 11.4057 71.7346Z" fill="#2A2A33"/>
<path d="M9.23905 71.4649C9.23905 71.3975 9.23905 71.3975 9.23905 71.4649C9.23905 71.3975 9.23905 71.3301 9.23905 71.2627C9.23905 71.1279 9.23905 70.9931 9.23905 70.8583C9.23905 70.5212 9.23905 70.1842 9.37446 69.8471C9.44217 69.5775 9.64529 69.3753 9.91612 69.2405C10.1869 69.1057 10.4578 69.0383 10.7286 69.0383C10.864 69.0383 10.9994 69.1731 10.9994 69.3079C10.9994 69.4427 10.864 69.5775 10.7286 69.5775C10.6609 69.5775 10.5932 69.5775 10.5255 69.5775H10.4578C10.3901 69.5775 10.4578 69.5775 10.4578 69.5775C10.4578 69.5775 10.4578 69.5775 10.3901 69.5775C10.3224 69.5775 10.3224 69.5775 10.2547 69.6449H10.1869C10.2547 69.6449 10.1869 69.6449 10.1869 69.6449H10.1192C10.1192 69.6449 10.1869 69.6449 10.1192 69.6449C10.0515 69.6449 10.0515 69.7123 10.0515 69.7797C10.1192 69.7123 10.0515 69.7797 10.0515 69.7797C10.0515 69.7797 10.0515 69.8471 9.98382 69.8471C9.98382 69.8471 9.91612 69.982 9.98382 69.9146C9.98382 69.9146 9.98382 69.982 9.91612 69.982C9.84841 70.1168 9.84841 70.2516 9.84841 70.3864C9.84841 70.5212 9.84841 70.656 9.84841 70.8583C9.84841 70.9931 9.84841 71.0605 9.84841 71.1953C9.84841 71.2627 9.84841 71.3975 9.84841 71.5323C9.7807 71.6672 9.64529 71.802 9.50988 71.7346C9.30676 71.7346 9.17134 71.5997 9.23905 71.4649Z" fill="#2A2A33"/>
<path d="M6.66618 79.2168C6.8693 79.7561 7.68178 79.6887 8.08802 79.6887H12.3536L13.9785 71.1279H10.5255H9.57757H8.56197C8.56197 71.1279 7.34324 71.1279 7.00471 72.2738C6.73388 72.9479 6.59847 74.2961 6.53076 75.9138V75.9812C6.59847 77.0598 6.59847 77.9361 6.66618 79.2168Z" fill="#E85451"/>
<path d="M12.5566 79.6213C13.5045 79.7561 14.4524 79.6887 15.4003 79.6213C15.4003 79.6213 15.4003 72.9479 14.9264 71.9368C14.7232 71.5323 14.5201 71.3301 14.317 71.1953C13.7753 70.9931 13.2337 71.5323 12.9629 72.2738C12.5566 73.2849 12.4889 78.3405 12.5566 79.6213Z" fill="#9E2323"/>
<path d="M12.4213 79.6887C13.3692 79.8235 14.4525 79.6887 15.4004 79.6213C15.1973 79.2842 14.3848 78.4753 14.1817 78.1383C13.8431 78.5428 13.64 78.745 13.4369 79.082C13.4369 78.8798 13.4369 78.6102 13.4369 78.4079C13.4369 77.5316 13.1661 71.8694 14.3171 71.1953C13.7754 70.9931 13.2338 71.5323 12.9629 72.2738C12.5567 73.2849 12.3536 78.4079 12.4213 79.6887Z" fill="#C93939"/>
<path d="M6.66614 75.9813C7.41091 76.7227 12.0827 76.5879 12.6243 76.4531C12.7598 76.4531 12.8952 76.3857 12.8952 76.2509L13.166 73.0827C12.7598 73.0153 12.8952 75.5768 12.5566 75.8464C12.2858 76.1835 7.47862 76.3857 6.66614 75.9813C6.66614 75.9139 6.66614 75.9139 6.66614 75.9813Z" fill="#C93939"/>
<path d="M9.17132 76.3857C9.17132 76.3857 9.37444 77.4642 9.64527 77.4642C9.91609 77.4642 10.2546 76.5205 10.2546 76.5205C10.2546 76.5205 10.5255 71.5997 10.864 71.1279H9.84839C8.9682 72.476 9.17132 76.3857 9.17132 76.3857Z" fill="#C93939"/>
<path d="M9.37445 76.5205C9.37445 76.7227 9.50986 76.925 9.64528 76.925C9.78069 76.925 9.9161 76.7227 9.9161 76.5205C9.9161 76.3183 9.78069 76.1161 9.64528 76.1161C9.50986 76.1835 9.37445 76.3183 9.37445 76.5205Z" fill="#FFA85A"/>
<path d="M9.4422 76.4531C9.4422 76.5879 9.50991 76.6553 9.57761 76.6553C9.64532 76.6553 9.71303 76.5879 9.71303 76.4531C9.71303 76.3183 9.64532 76.2509 9.57761 76.2509C9.50991 76.2509 9.4422 76.3183 9.4422 76.4531Z" fill="#FFC973"/>
<path d="M8.90047 71.4649C8.2234 71.6672 7.68175 72.3412 7.41092 72.9479C7.34321 72.139 8.02028 71.3975 8.90047 71.4649Z" fill="#9E2323"/>
<path d="M11.1348 69.5775C11.2025 69.3753 11.4733 68.9034 11.4733 68.6338C11.4733 68.499 11.2702 68.3642 11.2025 68.2294C11.1348 68.0271 11.3379 66.4768 11.3379 66.0723L9.71292 65.6005C9.71292 66.0049 9.98375 68.162 9.91604 68.499C9.84833 68.7012 9.44209 69.5101 9.64521 70.0494C9.78063 70.5212 11.4733 70.5212 11.4733 70.2516C11.4056 70.1842 11.0671 69.7797 11.1348 69.5775Z" fill="#FFA471"/>
<path d="M12.6243 46.8611C10.7285 46.7263 10.5254 52.7256 10.39 53.9389C9.98377 56.9049 9.50983 59.9382 9.50983 62.9716C9.50983 64.3871 9.57753 66.5442 9.64524 67.8923L11.4056 67.6901C11.7442 64.5893 12.015 61.0167 12.4889 57.9834C12.8275 55.8263 13.5045 51.9841 14.3847 50.0293L12.6243 46.8611Z" fill="#37474F"/>
</svg>
